<svg width="112" height="26" viewBox="0 0 112 26" fill="none" xmlns="http://www.w3.org/2000/svg">
<mask id="mask0_450_506" style="mask-type:luminance" maskUnits="userSpaceOnUse" x="0" y="0" width="112" height="26">
<path d="M0.875 0.148438H111.875V25.7984H0.875V0.148438Z" fill="white"/>
</mask>
<g mask="url(#mask0_450_506)">
<path d="M14.7969 0.148438C7.10937 0.148438 0.882812 5.74531 0.882812 12.6641C0.882812 19.5828 7.10937 25.1867 14.7969 25.1867C22.4844 25.1867 28.7031 19.5828 28.7031 12.6641C28.7031 5.74531 22.4844 0.148438 14.7969 0.148438ZM98.2578 0.148438C90.5703 0.148438 84.3437 5.74531 84.3437 12.6641C84.3437 19.5828 90.5703 25.1867 98.2578 25.1867C105.945 25.1867 112.164 19.5828 112.164 12.6641C112.164 5.74531 105.945 0.148438 98.2578 0.148438ZM56.5234 0.148438C48.8437 0.148438 42.6172 5.74531 42.6172 12.6641C42.6172 19.5828 48.8437 25.1867 56.5234 25.1867C64.2109 25.1867 70.4375 19.5828 70.4375 12.6641C70.4375 5.74531 64.2109 0.148438 56.5234 0.148438Z" fill="#ED3A85"/>
</g>
</svg>
