<svg width="24" height="31" viewBox="0 0 24 31" fill="none" xmlns="http://www.w3.org/2000/svg">
<g clip-path="url(#clip0_515_7366)">
<path d="M6.51367 21.6895C7.37305 22.5098 8.38867 22.9199 9.56055 22.9199C10.2637 22.9199 10.9473 22.7246 11.6113 22.334L8.56445 29.834C8.44727 30.1465 8.22266 30.332 7.89062 30.3906C7.55859 30.4492 7.27539 30.3613 7.04102 30.127L4.87305 27.9004L1.82617 28.0176C1.47461 28.0176 1.20117 27.8809 1.00586 27.6074C0.810547 27.334 0.771484 27.041 0.888672 26.7285L3.58398 20.166C4.05273 20.5566 4.54102 20.8301 5.04883 20.9863C5.16602 21.0254 5.3418 21.0645 5.57617 21.1035C5.92773 21.1816 6.18164 21.3184 6.33789 21.5137L6.51367 21.6895ZM23.2715 26.7285C23.3887 27.041 23.3496 27.334 23.1543 27.6074C22.959 27.8809 22.6855 28.0176 22.334 28.0176L19.2871 27.9004L17.1191 30.127C16.8848 30.3613 16.6016 30.4492 16.2695 30.3906C15.9375 30.332 15.7129 30.1465 15.5957 29.834L12.5488 22.334C13.2129 22.7246 13.8965 22.9199 14.5996 22.9199C15.7715 22.9199 16.7871 22.5098 17.6465 21.6895C17.6855 21.6504 17.7441 21.5918 17.8223 21.5137C17.9785 21.3184 18.2324 21.1816 18.584 21.1035C18.6621 21.1035 18.7207 21.0938 18.7598 21.0742C18.7988 21.0547 18.8477 21.0352 18.9062 21.0156C18.9648 20.9961 19.0332 20.9863 19.1113 20.9863C19.6191 20.8301 20.1074 20.5566 20.5762 20.166L23.2715 26.7285ZM16.2402 20.3418C15.8496 20.7324 15.3809 20.957 14.834 21.0156C14.2871 21.0742 13.7793 20.9668 13.3105 20.6934C12.959 20.459 12.5488 20.3418 12.0801 20.3418C11.6113 20.3418 11.2012 20.459 10.8496 20.6934C10.3809 20.9668 9.87305 21.0742 9.32617 21.0156C8.7793 20.957 8.31055 20.7324 7.91992 20.3418C7.80273 20.2246 7.70508 20.127 7.62695 20.0488C7.54883 19.9707 7.4707 19.9023 7.39258 19.8438C7.31445 19.7852 7.23633 19.7266 7.1582 19.668C7.08008 19.6094 7.02148 19.5703 6.98242 19.5508C6.94336 19.5312 6.85547 19.502 6.71875 19.4629C6.58203 19.4238 6.48438 19.3945 6.42578 19.375C6.36719 19.3555 6.25 19.3262 6.07422 19.2871C5.89844 19.248 5.75195 19.209 5.63477 19.1699C4.77539 18.9355 4.22852 18.3691 3.99414 17.4707C3.75977 16.6504 3.59375 16.1523 3.49609 15.9766C3.39844 15.8008 3.05664 15.4004 2.4707 14.7754C1.80664 14.1113 1.5918 13.3496 1.82617 12.4902C2.06055 11.6309 2.17773 11.1035 2.17773 10.9082C2.17773 10.7129 2.06055 10.2051 1.82617 9.38477C1.5918 8.48633 1.80664 7.70508 2.4707 7.04102C3.05664 6.45508 3.39844 6.07422 3.49609 5.89844C3.59375 5.72266 3.75977 5.20508 3.99414 4.3457C4.22852 3.48633 4.77539 2.91992 5.63477 2.64648C6.61133 2.41211 7.25586 2.13867 7.56836 1.82617C7.64648 1.78711 7.88086 1.55273 8.27148 1.12305C8.93555 0.458984 9.69727 0.244141 10.5566 0.478516C11.377 0.712891 11.8848 0.830078 12.0801 0.830078C12.2754 0.830078 12.7832 0.712891 13.6035 0.478516C14.4629 0.244141 15.2246 0.458984 15.8887 1.12305C16.4746 1.74805 16.8555 2.10938 17.0312 2.20703C17.207 2.30469 17.7051 2.45117 18.5254 2.64648C19.3848 2.91992 19.9316 3.48633 20.166 4.3457C20.3223 4.93164 20.4102 5.26367 20.4297 5.3418C20.4492 5.41992 20.5371 5.5957 20.6934 5.86914C20.8496 6.14258 20.957 6.30859 21.0156 6.36719C21.0742 6.42578 21.2988 6.65039 21.6895 7.04102C22.3535 7.70508 22.5684 8.48633 22.334 9.38477C22.0996 10.2051 21.9824 10.7129 21.9824 10.9082C21.9824 11.1035 22.0996 11.6309 22.334 12.4902C22.5684 13.3496 22.3535 14.1113 21.6895 14.7754C21.1035 15.4004 20.7617 15.8008 20.6641 15.9766C20.5664 16.1523 20.4004 16.6504 20.166 17.4707C19.9316 18.3691 19.3848 18.9355 18.5254 19.1699C18.4082 19.209 18.252 19.248 18.0566 19.2871C17.8613 19.3262 17.7344 19.3555 17.6758 19.375C17.6172 19.3945 17.5195 19.4336 17.3828 19.4922C17.2461 19.5508 17.1484 19.5898 17.0898 19.6094C17.0312 19.6289 16.9531 19.6777 16.8555 19.7559C16.7578 19.834 16.6602 19.9219 16.5625 20.0195C16.4648 20.1172 16.3574 20.2246 16.2402 20.3418ZM8.18359 6.74805C8.18359 6.74805 7.91504 7.02148 7.37793 7.56836C6.84082 8.11523 6.57227 9.16992 6.57227 10.7324C6.57227 12.2949 7.10938 13.623 8.18359 14.7168C9.25781 15.8105 10.5566 16.3574 12.0801 16.3574C13.6035 16.3574 14.9023 15.8105 15.9766 14.7168C17.0508 13.623 17.5879 12.2949 17.5879 10.7324C17.5879 9.7168 17.3438 8.7793 16.8555 7.91992C16.3672 7.06055 15.7031 6.37695 14.8633 5.86914C14.0234 5.36133 13.0957 5.10742 12.0801 5.10742C10.5566 5.10742 9.25781 5.6543 8.18359 6.74805Z" fill="black"/>
</g>
<defs>
<clipPath id="clip0_515_7366">
<rect width="22.5" height="30" fill="white" transform="matrix(1 0 0 -1 0.830078 30.4199)"/>
</clipPath>
</defs>
</svg>
