<svg width="51" height="17" viewBox="0 0 51 17" fill="none" xmlns="http://www.w3.org/2000/svg">
<g opacity="0.3" clip-path="url(#clip0_672_3531)">
<g clip-path="url(#clip1_672_3531)">
<g clip-path="url(#clip2_672_3531)">
<path d="M13.665 0.814453H15.921V16.1859H13.665V0.814453ZM23.8171 11.2824C23.8171 13.6348 22.0027 13.8224 21.4629 13.8224C20.1144 13.8224 19.869 12.4463 19.869 11.6163V5.73331H17.613V11.604C17.613 13.0612 18.0327 14.2638 18.7681 15.0656C19.4179 15.7745 20.3913 16.1619 21.446 16.1619C22.1939 16.1619 23.253 15.908 23.8171 15.3466V16.1859H26.0731V5.73331H23.8171V11.2824ZM30.5851 2.04417H28.3291V5.73331H26.6371V8.19274H28.3291V16.1859H30.5851V8.19274H32.2772V5.73331H30.5851V2.04417ZM39.3818 13.0606C38.8906 13.542 38.242 13.8088 37.5303 13.8088C35.9612 13.8088 34.8089 12.5527 34.8089 10.828C34.8089 9.10334 35.9246 7.90007 37.5303 7.90007C38.2296 7.90007 38.8906 8.154 39.3943 8.63544L39.7366 8.95639L41.2578 7.29874L40.877 6.92429C39.9819 6.0432 38.7936 5.54885 37.5296 5.54885C34.7097 5.54885 32.6617 7.76726 32.6617 10.8151C32.6617 13.85 34.7587 16.1478 37.5296 16.1478C38.8173 16.1478 40.018 15.6534 40.9018 14.7582L41.2696 14.3837L39.7248 12.7273L39.3818 13.0606ZM49.31 6.64453C48.6602 5.93621 47.8989 5.54885 46.8442 5.54885C46.0963 5.54885 45.2492 5.80279 44.6852 6.36354V0.814453H42.4291V16.1859H44.6852V10.4277C44.6852 8.0753 46.2181 7.88838 46.7579 7.88838C48.1064 7.88838 48.0692 9.26505 48.0692 10.0939V16.1859H50.3252V10.1068C50.3252 8.64958 50.0461 7.44692 49.31 6.64453Z" fill="white"/>
<path d="M37.4558 9.07617C37.8884 9.07617 38.3033 9.26355 38.6092 9.59703C38.9151 9.93044 39.0869 10.3827 39.0869 10.8543C39.0869 11.3259 38.9151 11.7782 38.6092 12.1117C38.3033 12.4452 37.8884 12.6325 37.4558 12.6325C37.0232 12.6325 36.6083 12.4452 36.3024 12.1117C35.9966 11.7782 35.8247 11.3259 35.8247 10.8543C35.8247 10.3827 35.9966 9.93044 36.3024 9.59703C36.6083 9.26355 37.0232 9.07617 37.4558 9.07617Z" fill="white"/>
<path d="M10.5067 12.3255C9.64887 13.2877 8.48364 13.8091 7.25752 13.8091C4.74432 13.8091 2.91695 11.6571 2.91695 8.70337C2.91695 5.73603 4.74432 3.58403 7.25752 3.58403C8.4718 3.58403 9.62404 4.10482 10.4949 5.05416L10.8378 5.42861L12.3459 3.78448L12.0149 3.41003C10.7645 2.00631 9.07244 1.24512 7.25752 1.24512C3.55484 1.24512 0.771484 4.45283 0.771484 8.71628C0.771484 12.9668 3.56725 16.1616 7.25752 16.1616C9.08489 16.1616 10.7769 15.3869 12.0273 13.9832L12.3584 13.6087L10.8626 11.9381L10.5067 12.3255Z" fill="white"/>
</g>
</g>
</g>
<defs>
<clipPath id="clip0_672_3531">
<rect width="50" height="16.14" fill="white" transform="translate(0.75 0.429688)"/>
</clipPath>
<clipPath id="clip1_672_3531">
<rect width="50" height="16.14" fill="white" transform="translate(0.75 0.429688)"/>
</clipPath>
<clipPath id="clip2_672_3531">
<rect width="49.9571" height="16.14" fill="white" transform="translate(0.771484 0.429688)"/>
</clipPath>
</defs>
</svg>
