<svg width="141" height="23" viewBox="0 0 141 23" fill="none" xmlns="http://www.w3.org/2000/svg">
<g opacity="0.3" clip-path="url(#clip0_672_3551)">
<g clip-path="url(#clip1_672_3551)">
<g clip-path="url(#clip2_672_3551)">
<path d="M19.1729 5.31543H24.1009C28.0674 5.31543 30.8318 7.98974 30.8318 11.4366V11.4961C30.8318 14.943 28.1274 17.6172 24.1009 17.6172H19.1729V5.31543ZM24.1009 15.1212C26.3846 15.1212 27.887 13.6356 27.887 11.4961V11.4366C27.887 9.29718 26.3846 7.75202 24.1009 7.75202H21.9975V15.1212H24.1009Z" fill="white"/>
<path d="M33.2354 5.31543H42.7908V7.69259H36.06V10.1886H42.0096V12.5658H36.06V15.1212H42.9111V17.4984H33.2954L33.2354 5.31543Z" fill="white"/>
<path d="M44.4717 15.7716L46.1544 13.8699C47.2963 14.7613 48.4983 15.3556 49.9406 15.3556C51.0825 15.3556 51.7435 14.8801 51.7435 14.2265V14.167C51.7435 13.4538 51.2628 13.0973 49.2195 12.6218C46.6954 11.9682 45.0126 11.3144 45.0126 8.87783V8.8184C45.0126 6.61952 46.8155 5.13379 49.4598 5.13379C51.2628 5.13379 52.8854 5.66865 54.1475 6.67895L52.7051 8.75897C51.6233 7.98638 50.4814 7.57038 49.3997 7.57038C48.318 7.57038 47.7771 8.04581 47.7771 8.64011V8.58068C47.7771 9.35326 48.318 9.6504 50.4814 10.1853C53.0657 10.839 54.4479 11.7305 54.4479 13.8104V13.8699C54.4479 16.3064 52.5249 17.6733 49.8204 17.6733C47.8973 17.6733 45.9742 17.0196 44.4717 15.7716Z" fill="white"/>
<path d="M56.9731 5.31543H59.7376V17.5579H56.9731V5.31543Z" fill="white"/>
<path d="M62.3813 11.4341C62.3813 7.92779 65.1458 5.0752 68.992 5.0752C71.2757 5.0752 72.598 5.66948 73.9201 6.79864L72.1773 8.87866C71.2157 8.10609 70.3743 7.63065 68.8719 7.63065C66.8286 7.63065 65.266 9.35409 65.266 11.4341V11.4935C65.266 13.7518 66.8286 15.4159 69.1123 15.4159C70.1339 15.4159 71.0355 15.1782 71.7565 14.6433V12.9198H68.932V10.6021H74.4009V15.8914C73.0788 16.9611 71.3359 17.8525 68.992 17.8525C65.0257 17.6742 62.3813 15.0592 62.3813 11.4341Z" fill="white"/>
<path d="M77.0454 5.31543H79.6296L85.5191 12.8036V5.31543H88.2236V17.5579H85.8798L79.7499 9.77261V17.5579H77.0454V5.31543Z" fill="white"/>
<path d="M91.2925 5.30957H97.0619C98.6845 5.30957 99.8865 5.785 100.728 6.55759C101.449 7.27073 101.81 8.2216 101.81 9.35075V9.41018C101.81 11.3714 100.728 12.6193 99.1052 13.2136L102.17 17.552H98.9249L96.2206 13.6297H96.1604H93.997V17.552H91.1724V5.30957H91.2925ZM96.8816 11.193C98.2639 11.193 98.985 10.4799 98.985 9.46961V9.41018C98.985 8.28102 98.2037 7.68674 96.8215 7.68674H94.057V11.193H96.8816Z" fill="white"/>
<path d="M104.155 12.2615V5.24888H106.919V12.1427C106.919 14.1632 107.941 15.1141 109.623 15.1141C111.306 15.1141 112.329 14.1039 112.329 12.1427V5.18945H115.093V12.0833C115.093 15.7679 112.929 17.6101 109.563 17.6101C106.198 17.6101 104.155 15.8272 104.155 12.2615Z" fill="white"/>
<path d="M117.075 15.7687L118.758 13.8669C119.9 14.7584 121.102 15.3527 122.544 15.3527C123.686 15.3527 124.347 14.8772 124.347 14.2235V14.1641C124.347 13.451 123.866 13.0944 121.823 12.6189C119.299 11.9652 117.616 11.3115 117.616 8.8749V8.81547C117.616 6.61658 119.419 5.13086 122.063 5.13086C123.866 5.13086 125.488 5.66572 126.751 6.67601L125.308 8.75604C124.227 7.98345 123.086 7.56745 122.003 7.56745C120.922 7.56745 120.38 8.04288 120.38 8.63717V8.57774C120.38 9.35033 120.922 9.64747 123.086 10.1823C125.67 10.8361 127.051 11.7275 127.051 13.8075V13.8669C127.051 16.3035 125.128 17.6705 122.424 17.6705C120.561 17.6705 118.578 17.0167 117.075 15.7687Z" fill="white"/>
<path d="M129.454 5.30957H132.218V10.1828H137.326V5.30957H140.091V17.552H137.326V12.6788H132.218V17.552H129.454V5.30957Z" fill="white"/>
<path d="M7.03731 14.1646C6.99776 14.1255 6.99776 14.1646 7.03731 14.1646L6.83952 14.0472L6.79996 14.0081L2.13212 10.7223C2.13212 10.7223 2.09257 10.7223 2.09257 10.6831L2.01345 10.6049L1.97389 10.5658H1.89477L0.549805 9.62695L3.20019 10.0181C3.31886 10.0181 3.35842 10.0573 3.47709 10.0964C3.51665 10.0964 3.59577 10.1355 3.59577 10.1355C3.71444 10.1746 3.754 10.2137 3.83312 10.2528C3.91223 10.292 3.95179 10.3311 4.0309 10.3702C4.07046 10.4093 4.14958 10.4484 4.14958 10.4876C4.18913 10.5267 4.22869 10.5267 4.26825 10.5658C4.34737 10.6049 4.38693 10.644 4.38693 10.6831C4.5056 10.8005 4.58472 10.9178 4.70339 10.9961L6.79996 13.9299L6.83952 13.969L7.03731 14.1646Z" fill="white"/>
<path d="M7.03388 18.7023L6.83609 18.3893L6.79653 18.3502L0.585938 9.62695L1.93091 10.5658L2.16825 10.7223L6.83609 14.0081H6.87565L7.03388 14.1255C7.03388 14.1255 7.07344 14.1255 7.07344 14.1646L7.27123 14.0081L13.5609 9.62695L7.23167 18.3893L7.19212 18.4285L7.03388 18.7023Z" fill="white"/>
<path d="M7.04183 12.6803L6.84404 12.3674L6.80448 12.3283L5.26172 10.2159L6.80448 10.5288H6.84404L7.04183 10.5679L7.23961 10.5288L8.74281 10.1768L7.23961 12.3674V12.4065L7.04183 12.6803Z" fill="white"/>
<path d="M13.6047 9.59082L11.6269 9.86464L10.8752 9.982C10.2818 10.0602 9.72802 10.3732 9.372 10.8817L7.27543 13.8547L7.23587 13.8938L7.03809 14.1677L7.27543 13.933L7.31499 13.8938L7.03809 14.1677L12.3784 10.4123L13.6047 9.59082Z" fill="white"/>
<path d="M8.02756 3.40899C8.02756 5.13018 5.02116 6.02989 5.02116 7.86844C4.9816 8.29874 5.10027 8.72903 5.29807 9.12021C5.29807 9.12021 4.15088 8.02491 4.15088 6.85137C4.15088 5.67783 5.25851 3.91753 5.25851 3.91753C5.25851 4.69989 5.57496 4.93459 5.89143 4.97371H5.93099C6.28702 4.97371 6.4848 4.69989 6.4848 4.30871C6.4848 3.91753 6.04967 3.52635 6.04967 2.74399C6.04967 2.00075 6.99906 0.788086 6.99906 0.788086C7.67154 1.57045 8.02756 2.47016 8.02756 3.40899Z" fill="white"/>
<path d="M7.19708 9.66752C6.24769 9.66752 5.53564 8.92428 5.53564 8.02457V7.98545C5.53564 5.99043 8.34426 5.79485 8.34426 3.0957C8.42337 3.21306 9.17497 4.23012 9.17497 5.32543C9.17497 6.69455 7.86956 7.04661 7.86956 7.71162C7.86956 7.98545 7.98824 8.18103 8.38381 8.18103C8.42337 8.18103 8.46293 8.18103 8.50249 8.14192C9.25409 7.82897 9.76834 7.12485 9.8079 6.30337C9.8079 6.34249 10.2035 9.66752 7.19708 9.66752Z" fill="white"/>
<path d="M8.42317 8.18103C8.46273 8.18103 8.50229 8.18103 8.54185 8.14192C8.14626 8.25927 6.68262 8.61133 6.68262 7.59427C6.68262 6.34249 8.8583 6.06867 8.8583 5.01248C8.8583 4.34748 8.70008 3.68247 8.34405 3.0957C8.42317 3.21306 9.17477 4.23012 9.17477 5.32543C9.17477 6.69455 7.86936 7.04661 7.86936 7.71163C7.90892 7.98545 8.06714 8.18103 8.42317 8.18103Z" fill="white"/>
<path d="M7.23608 4.11311C7.23608 5.09106 5.97023 5.01283 5.89111 4.97371H6.00979C6.36582 4.97371 6.5636 4.69989 6.5636 4.30871C6.5636 3.91753 6.12846 3.52635 6.12846 2.74399C6.12846 2.00075 7.07786 0.788086 7.07786 0.788086C6.76139 1.29662 6.60316 1.84427 6.5636 2.39193C6.5636 3.29163 7.23608 3.36987 7.23608 4.11311Z" fill="white"/>
<path d="M6.44253 21.2054L5.57227 20.6186H6.64032L6.99635 19.5625L7.31281 20.6186H8.38088L7.5106 21.2054L7.82707 22.2225L6.95679 21.5966L6.04696 22.2225L6.44253 21.2054Z" fill="white"/>
<path d="M10.9972 21.2054L10.127 20.6186H11.195L11.5511 19.5625L11.8675 20.6186H12.9356L12.0653 21.2054L12.3818 22.2225L11.5115 21.5966L10.6016 22.2225L10.9972 21.2054Z" fill="white"/>
<path d="M1.93472 21.2054L1.06445 20.6186H2.13252L2.48854 19.5625L2.805 20.6186H3.87307L3.00279 21.2054L3.31925 22.2225L2.44898 21.5966L1.57871 22.2225L1.93472 21.2054Z" fill="white"/>
</g>
</g>
</g>
<defs>
<clipPath id="clip0_672_3551">
<rect width="140.4" height="22.51" fill="white" transform="translate(0.549805 0.25)"/>
</clipPath>
<clipPath id="clip1_672_3551">
<rect width="140.4" height="22.51" fill="white" transform="translate(0.549805 0.25)"/>
</clipPath>
<clipPath id="clip2_672_3551">
<rect width="140.4" height="22.5069" fill="white" transform="translate(0.549805 0.251953)"/>
</clipPath>
</defs>
</svg>
