<svg width="109" height="19" viewBox="0 0 109 19" fill="none" xmlns="http://www.w3.org/2000/svg">
<g opacity="0.3" clip-path="url(#clip0_672_3542)">
<g clip-path="url(#clip1_672_3542)">
<g clip-path="url(#clip2_672_3542)">
<path d="M6.88128 7.07292C6.88128 7.07292 5.98142 6.9822 5.98142 7.7805V11.3547H11.8845V12.4251C11.8845 12.4251 11.9025 12.9513 11.3446 12.9513H5.98142V17.596H12.4244C12.4244 17.596 16.3298 16.9972 16.3658 12.9513V7.07292H6.88128ZM16.1858 1.37598H4.55963C0.348288 2.37385 0.258301 5.85733 0.258301 5.85733V17.6141H4.72161V6.90963C4.72161 6.00247 5.62148 5.83919 5.62148 5.83919H16.1678L16.1858 1.37598ZM31.5375 14.2395C31.2315 14.439 30.9976 14.6023 30.8356 14.693C30.2596 15.0559 29.7197 15.3281 29.2159 15.5457C28.4779 15.8542 27.83 15.9994 27.2361 15.9994C25.2205 15.9994 23.5467 15.3825 22.2149 14.1306C20.8651 12.8787 20.1992 11.3003 20.1992 9.41335C20.1992 7.58093 20.7932 6.00248 22.0169 4.64174C23.2228 3.29915 24.6985 2.62785 26.4262 2.62785C27.1462 2.62785 27.9201 2.75485 28.7119 3.00885C29.7558 3.33544 30.5836 3.84344 31.2675 4.47845L30.1157 5.76661C29.6298 5.27675 28.9819 4.93203 28.244 4.71431C27.6861 4.55102 27.0741 4.46031 26.3903 4.46031C25.1844 4.46031 24.1586 4.95017 23.3308 5.9299C22.5209 6.92777 22.1069 8.08893 22.1069 9.46782C22.1069 10.8286 22.5749 11.9534 23.5107 12.8424C24.4466 13.7315 25.6344 14.185 27.0741 14.185C27.668 14.185 28.28 13.9854 28.9098 13.6226C29.4318 13.2235 29.7018 13.0239 29.7018 13.0239V10.1935H25.7964L26.3543 8.43365H31.5375V14.2395ZM43.2897 10.7923C43.2897 12.153 42.8037 13.3323 41.8499 14.3302C40.896 15.3281 39.7082 15.8361 38.2865 15.8361C36.9726 15.8361 35.8388 15.3462 34.8489 14.3665C33.8591 13.3867 33.3732 12.2074 33.3732 10.8104C33.3732 9.43153 33.8411 8.25222 34.777 7.23621C35.7128 6.22019 36.8646 5.73033 38.1964 5.73033C39.6902 5.73033 40.896 6.22019 41.8499 7.18178C42.8037 8.12522 43.2897 9.34084 43.2897 10.7923ZM41.472 10.8286C41.472 9.90325 41.166 9.12309 40.5541 8.48808C39.9422 7.83493 39.1863 7.5265 38.2684 7.5265C37.4226 7.5265 36.7027 7.85308 36.0907 8.52437C35.4968 9.17749 35.1909 9.93954 35.1909 10.7923C35.1909 11.6812 35.4968 12.4433 36.0907 13.0783C36.6847 13.7133 37.4405 14.0399 38.3405 14.0399C39.1863 14.0399 39.9062 13.7315 40.5181 13.0965C41.166 12.4433 41.472 11.6812 41.472 10.8286ZM54.8979 10.7923C54.8979 12.153 54.4119 13.3323 53.4581 14.3302C52.5042 15.3281 51.3164 15.8361 49.8947 15.8361C48.5808 15.8361 47.447 15.3462 46.4571 14.3665C45.4673 13.3867 44.9814 12.2074 44.9814 10.8104C44.9814 9.43153 45.4493 8.25222 46.3852 7.23621C47.321 6.22019 48.4729 5.73033 49.8046 5.73033C51.2984 5.73033 52.5042 6.22019 53.4581 7.18178C54.4119 8.12522 54.8979 9.34084 54.8979 10.7923ZM53.0621 10.8286C53.0621 9.90325 52.7562 9.12309 52.1443 8.48808C51.5324 7.83493 50.7765 7.5265 49.8586 7.5265C49.0128 7.5265 48.2929 7.85308 47.681 8.52437C47.0871 9.17749 46.7811 9.93954 46.7811 10.7923C46.7811 11.6812 47.0871 12.4433 47.681 13.0783C48.2749 13.7133 49.0308 14.0399 49.9306 14.0399C50.7765 14.0399 51.4964 13.7315 52.1083 13.0965C52.7562 12.4433 53.0621 11.6812 53.0621 10.8286ZM65.6242 15.5639L63.9504 15.8179V14.185L63.5905 14.6023C63.2666 14.9108 62.9067 15.1466 62.5287 15.3462C61.9528 15.6183 61.3409 15.7453 60.7109 15.7453C59.3972 15.7453 58.2813 15.2555 57.3815 14.2939C56.4817 13.3323 56.0137 12.153 56.0137 10.8104C56.0137 9.41335 56.4636 8.21593 57.3635 7.23621C58.2634 6.23834 59.3432 5.74847 60.6569 5.74847C61.4128 5.74847 62.0607 5.87547 62.6007 6.11133C62.9966 6.29277 63.3206 6.52862 63.6086 6.81891C63.6985 6.94591 63.7885 7.07292 63.8965 7.19992V2.89999L65.6782 2.646L65.6242 15.5639ZM64.0584 10.9193C64.0584 9.95765 63.7345 9.1412 63.0866 8.48808C62.4387 7.81678 61.7008 7.49021 60.855 7.49021C59.9191 7.49021 59.1812 7.79865 58.6053 8.43365C58.0654 9.03238 57.7954 9.77627 57.7954 10.6471C57.7954 11.6268 58.0834 12.4433 58.6413 13.0783C59.1992 13.7133 59.9011 14.0217 60.783 14.0217C61.6288 14.0217 62.3847 13.7315 63.0506 13.1328C63.7165 12.534 64.0584 11.7901 64.0584 10.9193ZM75.0548 4.67803H70.0515V8.10707H73.9389V9.86696H70.0515V15.5457L68.1078 15.8361V2.89999H74.6768L75.0548 4.67803ZM79.0681 3.68015L77.8624 5.20417L76.7105 3.68015L77.9163 2.17427L79.0681 3.68015ZM78.7082 15.5639L76.9265 15.8179V6.23834L78.7082 5.96619V15.5639ZM86.7708 5.85733L85.9248 7.81678C85.8168 7.79864 85.7088 7.79865 85.583 7.79865C85.4036 7.79865 85.2412 7.81678 85.0609 7.83493C84.8815 7.85307 84.7013 7.92564 84.5032 8.0345C84.1256 8.1978 83.8017 8.56065 83.5313 9.08681C83.2252 9.70368 83.0637 10.375 83.0637 11.0644V15.5457L81.2818 15.8361V6.23834L82.9378 5.9299V7.92564C83.1538 7.58093 83.3697 7.23621 83.5857 6.87334C83.891 6.51048 84.2515 6.25647 84.6469 6.09318C84.8628 6.00247 85.2412 5.94805 85.8347 5.89362C86.4111 5.85733 86.7351 5.83919 86.7708 5.85733ZM100.089 15.5639L98.3072 15.8179V9.25007C98.3072 8.65137 98.1813 8.19779 97.911 7.92564C97.6414 7.65349 97.2452 7.50835 96.7231 7.50835C96.0931 7.50835 95.6254 7.76235 95.3015 8.28851C95.0855 8.65137 94.9597 9.03238 94.9597 9.41335V15.5276L93.1776 15.8542V9.26826C93.1776 8.68765 93.0517 8.25222 92.7822 7.94379C92.5118 7.63536 92.17 7.49021 91.7202 7.49021H91.5399C90.9107 7.49021 90.4601 7.74421 90.1727 8.28851C89.9567 8.68766 89.8487 9.19567 89.8487 9.81256V15.5095L87.9943 15.8361V6.20204L89.6685 5.91176V7.14549C89.8487 6.85521 90.0468 6.61934 90.2084 6.45605C90.6947 6.00247 91.2525 5.78476 91.8817 5.78476C92.584 5.78476 93.1061 5.89362 93.4658 6.12948C93.7719 6.32905 94.0601 6.71006 94.3654 7.25435C94.9775 6.27462 95.8414 5.78476 96.9935 5.78476C98.0912 5.78476 98.9007 6.12948 99.4406 6.83706C99.8725 7.41764 100.089 8.27036 100.089 9.37705V15.5639ZM108.242 12.661C108.242 13.55 107.936 14.2758 107.323 14.8382C106.712 15.4188 105.938 15.6909 105.002 15.6909C104.3 15.6909 103.671 15.5276 103.094 15.201C102.519 14.8745 102.087 14.4934 101.816 14.058L103.076 12.9331C103.166 13.0783 103.257 13.1872 103.329 13.2597C103.796 13.7496 104.354 13.9854 105.002 13.9854C105.452 13.9854 105.812 13.8584 106.064 13.6226C106.334 13.3867 106.459 13.0602 106.459 12.6247C106.459 12.1349 106.154 11.8083 105.542 11.6268C104.336 11.264 103.671 11.0462 103.58 11.01C103.023 10.7197 102.626 10.4113 102.375 10.0665C102.087 9.66739 101.943 9.1412 101.943 8.46994C101.943 7.63536 102.248 6.96406 102.842 6.40162C103.436 5.85733 104.156 5.58518 104.984 5.58518C105.614 5.58518 106.19 5.73033 106.73 6.02062C107.27 6.3109 107.647 6.61934 107.882 6.96406L106.82 8.12522C106.658 7.96193 106.478 7.81678 106.298 7.68979C105.866 7.38135 105.452 7.23621 105.074 7.23621C104.696 7.23621 104.39 7.32692 104.156 7.49021C103.868 7.68979 103.724 7.99822 103.724 8.39737C103.724 8.77837 103.85 9.06866 104.138 9.25007C104.372 9.39524 104.876 9.55851 105.686 9.73997C106.478 9.93954 107.107 10.2661 107.539 10.7378C108.044 11.2458 108.242 11.8627 108.242 12.661Z" fill="white"/>
</g>
</g>
</g>
<defs>
<clipPath id="clip0_672_3542">
<rect width="108" height="17.05" fill="white" transform="translate(0.25 0.969727)"/>
</clipPath>
<clipPath id="clip1_672_3542">
<rect width="108" height="17.05" fill="white" transform="translate(0.25 0.969727)"/>
</clipPath>
<clipPath id="clip2_672_3542">
<rect width="107.983" height="17.05" fill="white" transform="translate(0.258301 0.969727)"/>
</clipPath>
</defs>
</svg>
