<svg width="782" height="728" viewBox="0 0 782 728" fill="none" xmlns="http://www.w3.org/2000/svg">
<path fill-rule="evenodd" clip-rule="evenodd" d="M781.985 372.2L781.565 376.942L780.741 381.667L779.515 386.363L777.893 391.018L775.882 395.621L773.491 400.159L770.732 404.624L767.619 409.004L764.167 413.29L760.393 417.474L756.317 421.548L751.958 425.506L747.34 429.342L742.484 433.052L737.414 436.632L732.155 440.08L726.73 443.395L721.165 446.576L715.483 449.623L709.706 452.539L703.858 455.325L697.958 457.984L692.025 460.519L686.075 462.934L680.123 465.232L674.183 467.417L668.266 469.493L662.383 471.464L656.547 473.335L650.767 475.11L645.055 476.797L639.42 478.4L633.871 479.925L628.418 481.378L623.068 482.767L617.828 484.098L612.706 485.377L607.707 486.611L602.836 487.807L598.099 488.973L593.498 490.114L589.038 491.237L584.72 492.349L580.547 493.457L576.519 494.566L572.637 495.684L568.9 496.815L565.309 497.966L561.861 499.141L558.555 500.346L555.388 501.587L552.358 502.866L549.461 504.189L546.693 505.56L544.05 506.981L541.528 508.457L539.122 509.99L536.827 511.582L534.637 513.236L532.547 514.954L530.552 516.737L528.646 518.587L526.822 520.505L525.075 522.491L523.399 524.545L521.788 526.669L520.236 528.862L518.738 531.123L517.287 533.453L515.878 535.852L514.505 538.317L513.164 540.85L511.849 543.448L510.555 546.111L509.277 548.838L508.011 551.629L506.752 554.482L505.496 557.395L504.239 560.37L502.977 563.403L501.706 566.495L500.423 569.644L499.124 572.85L497.805 576.111L496.465 579.427L495.099 582.797L493.704 586.22L492.278 589.694L490.818 593.219L489.321 596.793L487.783 600.414L486.202 604.081L484.574 607.793L482.898 611.547L481.17 615.34L479.387 619.169L477.546 623.033L475.644 626.926L473.678 630.845L471.646 634.786L469.543 638.744L467.369 642.715L465.119 646.691L462.792 650.668L460.384 654.64L457.895 658.6L455.321 662.542L452.663 666.46L449.917 670.347L447.084 674.198L444.163 678.007L441.153 681.763L438.052 685.459L434.86 689.081L431.576 692.617L428.199 696.051L424.73 699.371L421.17 702.563L417.521 705.613L413.785 708.511L409.965 711.244L406.065 713.802L402.09 716.175L398.044 718.353L393.933 720.327L389.762 722.09L385.538 723.633L381.267 724.951L376.957 726.039L372.613 726.89L368.245 727.503L363.859 727.874L359.464 728.001L355.066 727.884L350.674 727.524L346.297 726.923L341.94 726.083L337.612 725.009L333.32 723.706L329.071 722.18L324.871 720.439L320.727 718.491L316.644 716.346L312.627 714.015L308.68 711.508L304.808 708.839L301.013 706.02L297.299 703.064L293.665 699.987L290.115 696.803L286.646 693.526L283.26 690.173L279.955 686.759L276.728 683.299L273.577 679.809L270.498 676.303L267.487 672.798L264.538 669.307L261.647 665.845L258.808 662.425L256.014 659.059L253.257 655.76L250.531 652.539L247.829 649.406L245.142 646.37L242.463 643.439L239.783 640.621L237.095 637.92L234.392 635.342L231.665 632.889L228.908 630.566L226.113 628.371L223.274 626.307L220.385 624.37L217.44 622.56L214.435 620.873L211.365 619.304L208.226 617.848L205.015 616.499L201.731 615.25L198.372 614.094L194.936 613.022L191.425 612.025L187.839 611.093L184.18 610.219L180.449 609.39L176.65 608.598L172.786 607.832L168.862 607.081L164.883 606.336L160.852 605.588L156.777 604.825L152.663 604.039L148.517 603.221L144.344 602.363L140.153 601.457L135.949 600.495L131.74 599.47L127.532 598.378L123.333 597.211L119.149 595.965L114.991 594.632L110.867 593.207L106.787 591.683L102.764 590.054L98.8077 588.314L94.9297 586.459L91.1413 584.484L87.4541 582.385L83.8793 580.158L80.4281 577.802L77.1115 575.315L73.9404 572.696L70.9252 569.944L68.076 567.06L65.4023 564.044L62.9132 560.9L60.6168 557.629L58.5207 554.234L56.6317 550.721L54.9553 547.094L53.4964 543.358L52.2585 539.52L51.2441 535.587L50.4545 531.565L49.8896 527.463L49.5482 523.29L49.4277 519.054L49.524 514.763L49.8318 510.429L50.3446 506.059L51.0543 501.664L51.9517 497.253L53.0264 492.836L54.2665 488.423L55.6595 484.021L57.1913 479.641L58.8473 475.291L60.6118 470.978L62.4685 466.71L64.4002 462.493L66.3896 458.335L68.4186 454.24L70.4691 450.212L72.5229 446.257L74.5616 442.376L76.5671 438.572L78.5215 434.847L80.4075 431.201L82.2081 427.633L83.9071 424.142L85.4892 420.727L86.9396 417.384L88.245 414.11L89.3929 410.9L90.372 407.751L91.1724 404.655L91.7854 401.608L92.2036 398.602L92.4212 395.63L92.4337 392.686L92.238 389.762L91.8327 386.85L91.2174 383.943L90.3934 381.032L89.3634 378.109L88.1313 375.168L86.7022 372.2L85.0825 369.198L83.2797 366.155L81.3023 363.064L79.1597 359.92L76.8622 356.716L74.4209 353.447L71.8474 350.107L69.154 346.694L66.3533 343.202L63.4586 339.628L60.483 335.97L57.4402 332.226L54.3439 328.393L51.2079 324.472L48.0461 320.461L44.8722 316.361L41.7003 312.172L38.5442 307.896L35.418 303.534L32.3357 299.089L29.3116 294.565L26.3601 289.964L23.4961 285.292L20.7346 280.554L18.0907 275.756L15.5795 270.904L13.2155 266.006L11.0121 261.069L8.98188 256.102L7.13593 251.112L5.48447 246.108L4.03657 241.098L2.80024 236.091L1.78244 231.096L0.989102 226.121L0.425093 221.175L0.0942778 216.266L-0.000488281 211.404L0.142659 206.595L0.524612 201.849L1.14531 197.172L2.00378 192.573L3.09814 188.059L4.42564 183.635L5.9827 179.309L7.76494 175.086L9.76725 170.971L11.9838 166.97L14.408 163.086L17.0328 159.324L19.8505 155.686L22.8529 152.175L26.0313 148.793L29.3767 145.541L32.8796 142.419L36.5302 139.429L40.3188 136.57L44.2351 133.84L48.2688 131.239L52.4098 128.763L56.6476 126.41L60.972 124.176L65.3728 122.059L69.8401 120.054L74.3639 118.157L78.9347 116.361L83.5433 114.663L88.1806 113.056L92.8381 111.535L97.5078 110.092L102.182 108.723L106.853 107.42L111.514 106.177L116.16 104.988L120.784 103.845L125.381 102.742L129.947 101.674L134.479 100.633L138.971 99.6131L143.423 98.6097L147.831 97.6168L152.194 96.6294L156.511 95.643L160.782 94.6535L165.007 93.6573L169.186 92.6513L173.32 91.6331L177.412 90.6009L181.462 89.5535L185.474 88.4907L189.45 87.4125L193.393 86.3199L197.307 85.2148L201.196 84.0995L205.062 82.9771L208.909 81.8515L212.742 80.7272L216.565 79.6092L220.38 78.5031L224.192 77.415L228.003 76.3514L231.818 75.3189L235.638 74.3243L239.466 73.3744L243.303 72.4759L247.152 71.6348L251.012 70.8566L254.885 70.1461L258.769 69.5066L262.664 68.9403L266.568 68.4477L270.479 68.0274L274.394 67.676L278.312 67.3883L282.228 67.1574L286.139 66.9751L290.045 66.8325L293.941 66.7201L297.827 66.6283L301.7 66.5471L305.561 66.4664L309.409 66.3759L313.243 66.2654L317.064 66.1247L320.874 65.9438L324.674 65.7132L328.466 65.4233L332.253 65.0654L336.038 64.631L339.824 64.1125L343.616 63.5027L347.417 62.7954L351.232 61.9852L355.066 61.0675L358.924 60.0387L362.812 58.8961L366.734 57.6383L370.696 56.2647L374.704 54.7759L378.762 53.1737L382.877 51.461L387.052 49.6417L391.293 47.721L395.603 45.7052L399.988 43.6016L404.45 41.4187L408.992 39.166L413.616 36.8539L418.325 34.4939L423.119 32.0985L427.998 29.6806L432.963 27.2543L438.011 24.8342L443.14 22.4354L448.348 20.0739L453.631 17.7656L458.983 15.5271L464.399 13.3751L469.872 11.3264L475.396 9.3979L480.96 7.6063L486.557 5.96813L492.176 4.49959L497.807 3.21645L503.438 2.13389L509.057 1.26646L514.651 0.627905L520.208 0.231093L525.713 0.0878906L531.153 0.209069L536.513 0.604206L541.781 1.2816L546.94 2.24817L551.979 3.5094L556.882 5.06928L561.636 6.9302L566.228 9.09295L570.647 11.5567L574.88 14.3189L578.917 17.3753L582.748 20.7201L586.365 24.3457L589.76 28.2429L592.927 32.4009L595.862 36.8076L598.561 41.4491L601.023 46.3106L603.249 51.3757L605.238 56.6272L606.996 62.0469L608.526 67.6158L609.835 73.3145L610.931 79.1231L611.823 85.0218L612.522 90.9905L613.038 97.0101L613.384 103.062L613.573 109.127L613.617 115.19L613.529 121.235L613.323 127.246L613.015 133.208L612.62 139.106L612.156 144.928L611.638 150.659L611.084 156.287L610.513 161.802L609.943 167.193L609.392 172.45L608.879 177.564L608.423 182.529L608.042 187.337L607.755 191.984L607.58 196.466L607.532 200.781L607.63 204.926L607.889 208.903L608.323 212.711L608.947 216.355L609.772 219.836L610.81 223.161L612.072 226.334L613.564 229.363L615.295 232.256L617.27 235.021L619.493 237.668L621.966 240.207L624.69 242.65L627.663 245.008L630.884 247.293L634.346 249.517L638.045 251.693L641.972 253.833L646.117 255.952L650.471 258.061L655.019 260.174L659.749 262.303L664.644 264.46L669.688 266.657L674.862 268.905L680.146 271.216L685.522 273.599L690.967 276.064L696.459 278.619L701.974 281.272L707.49 284.031L712.982 286.9L718.425 289.886L723.795 292.991L729.067 296.219L734.216 299.571L739.218 303.048L744.047 306.649L748.681 310.374L753.096 314.219L757.27 318.18L761.18 322.253L764.808 326.433L768.132 330.711L771.136 335.082L773.802 339.536L776.116 344.065L778.065 348.657L779.636 353.304L780.82 357.993L781.61 362.713L782 367.453L781.985 372.2Z" fill="url(#paint0_linear_527_751)"/>
<defs>
<linearGradient id="paint0_linear_527_751" x1="-0.000488281" y1="364.044" x2="782" y2="364.044" gradientUnits="userSpaceOnUse">
<stop stop-color="#F9703A" stop-opacity="0.43"/>
<stop offset="1" stop-color="#FD0054" stop-opacity="0.32"/>
</linearGradient>
</defs>
</svg>
