<svg width="32" height="25" viewBox="0 0 32 25" fill="none" xmlns="http://www.w3.org/2000/svg">
<path d="M11.791 23.875L0.470272 13.0312C0.0405084 12.625 0.0405084 11.9531 0.470272 11.5417L11.791 0.687501C12.2207 0.28125 12.9171 0.28125 13.3468 0.687501C13.7712 1.09896 13.7712 1.76563 13.3468 2.17708L3.89205 11.2292H30.0042C30.6081 11.2292 31.1031 11.7031 31.1031 12.2812C31.1031 12.8594 30.6081 13.3333 30.0042 13.3333H3.89205L13.3468 22.3854C13.5644 22.599 13.6624 22.8594 13.6624 23.1354C13.6624 23.4115 13.5536 23.6771 13.3468 23.8854C12.9171 24.2812 12.2207 24.2813 11.791 23.875Z" fill="#B3AAFF"/>
</svg>
