<svg width="115" height="83" viewBox="0 0 115 83" fill="none" xmlns="http://www.w3.org/2000/svg">
<path d="M49.375 19.1719C43.6654 19.3385 39.1187 20.2917 35.7399 22.0521C32.3561 23.8229 29.6859 26.5833 27.7345 30.349C35.5452 30.349 42.0284 32.349 47.179 36.3438C52.3247 40.3438 54.9 46.8542 54.9 55.875C54.9 59.2448 54.336 62.5365 53.2081 65.7552C52.0801 68.9688 50.3533 71.8125 48.0225 74.2812C45.6918 76.7552 42.8719 78.7917 39.5679 80.401C36.2589 82.0104 32.4708 82.8073 28.1837 82.8073C19.6891 82.8073 12.8716 79.9271 7.72592 74.1667C2.5803 68.4062 0 60.6979 0 51.0573C0 45.724 0.733664 40.3333 2.20099 34.8854C3.66333 29.4375 6.27856 24.375 10.0367 19.7083C13.7949 15.0417 18.8656 10.9427 25.254 7.41667C31.6374 3.88542 39.6827 1.41146 49.375 0V19.1719ZM109.461 19.1719C103.746 19.3385 99.2043 20.2917 95.8204 22.0521C92.4416 23.8229 89.7315 26.5833 87.7052 30.3542C95.5958 30.3542 102.114 32.349 107.265 36.349C112.41 40.349 114.991 46.8594 114.991 55.875C114.991 59.25 114.407 62.5417 113.239 65.7604C112.071 68.974 110.344 71.8177 108.048 74.2865C105.757 76.7552 102.962 78.7969 99.6535 80.401C96.3445 82.0156 92.5164 82.8125 88.1594 82.8125C79.7397 82.8125 72.9371 79.9323 67.7566 74.1719C62.566 68.4062 59.9707 60.6979 59.9707 51.0521C59.9707 45.7188 60.7044 40.3281 62.1717 34.8802C63.6341 29.4271 66.2643 24.3698 70.0574 19.7031C73.8505 15.0365 78.9462 10.9375 85.3345 7.41146C91.7229 3.88542 99.7632 1.41146 109.461 0V19.1719Z" fill="#3F2182"/>
</svg>
