<svg width="32" height="25" viewBox="0 0 32 25" fill="none" xmlns="http://www.w3.org/2000/svg">
<path d="M20.0738 23.875L31.3946 13.0312C31.8243 12.625 31.8243 11.9531 31.3946 11.5417L20.0738 0.687501C19.6441 0.28125 18.9423 0.28125 18.518 0.687501C18.0937 1.09896 18.0937 1.76563 18.518 2.17708L27.9728 11.2292H1.86061C1.25676 11.2292 0.761719 11.7031 0.761719 12.2812C0.761719 12.8594 1.25676 13.3333 1.86061 13.3333H27.9728L18.518 22.3854C18.3004 22.599 18.2025 22.8594 18.2025 23.1354C18.2025 23.4115 18.3113 23.6771 18.518 23.8854C18.9423 24.2812 19.6441 24.2813 20.0738 23.875Z" fill="#B3AAFF"/>
</svg>
