<svg width="39" height="30" viewBox="0 0 39 30" fill="none" xmlns="http://www.w3.org/2000/svg">
<path d="M30.8303 11.1904L30.3615 12.0107C30.1662 12.3623 29.8732 12.4795 29.4826 12.3623C28.7795 12.0889 28.1545 11.7178 27.6076 11.249C27.2951 10.9756 27.2365 10.6631 27.4318 10.3115L27.9006 9.49121C27.51 9.02246 27.1975 8.49512 26.9631 7.90918H26.0256C25.5959 7.90918 25.3615 7.69434 25.3225 7.26465C25.1662 6.56152 25.1662 5.83887 25.3225 5.09668C25.3615 4.70605 25.5959 4.51074 26.0256 4.51074H26.9631C27.1975 3.9248 27.51 3.39746 27.9006 2.92871L27.4318 2.0498C27.2365 1.69824 27.2951 1.40527 27.6076 1.1709C28.1545 0.702148 28.7795 0.331055 29.4826 0.0576172C29.8732 -0.0986328 30.1662 -0.000976562 30.3615 0.350586L30.8303 1.22949C31.4553 1.1123 32.0803 1.1123 32.7053 1.22949L33.174 0.350586C33.3693 -0.000976562 33.6623 -0.0986328 34.0529 0.0576172C34.756 0.291992 35.381 0.663086 35.9279 1.1709C36.2404 1.40527 36.299 1.69824 36.1037 2.0498L35.635 2.92871C36.0256 3.39746 36.3381 3.9248 36.5725 4.51074H37.51C37.9396 4.51074 38.174 4.70605 38.2131 5.09668C38.3693 5.83887 38.3693 6.56152 38.2131 7.26465C38.174 7.69434 37.9396 7.90918 37.51 7.90918H36.5725C36.3381 8.49512 36.0256 9.02246 35.635 9.49121L36.1037 10.3115C36.299 10.7021 36.2404 11.0146 35.9279 11.249C35.381 11.7178 34.756 12.0889 34.0529 12.3623C33.6623 12.4795 33.3693 12.3623 33.174 12.0107L32.7053 11.1904C32.0803 11.3076 31.4553 11.3076 30.8303 11.1904ZM30.2443 7.7334C30.9475 8.28027 31.6701 8.43652 32.4123 8.20215C33.1545 7.96777 33.6135 7.50879 33.7892 6.8252C33.965 6.1416 33.799 5.40918 33.2912 4.62793C32.5881 4.08105 31.8654 3.9248 31.1232 4.15918C30.381 4.39355 29.9221 4.85254 29.7463 5.53613C29.5705 6.21973 29.7365 6.95215 30.2443 7.7334ZM23.4475 16.7568L25.4396 17.7529C26.1037 18.1436 26.299 18.71 26.0256 19.4521C25.674 20.4678 24.8537 21.7568 23.5646 23.3193C23.0568 23.9053 22.4709 24.0029 21.8068 23.6123L20.049 22.6162C19.1115 23.4365 18.0568 24.0615 16.885 24.4912V26.4834C16.885 26.7959 16.7678 27.0889 16.5334 27.3623C16.299 27.6357 16.0256 27.792 15.7131 27.8311C14.2287 28.1045 12.7443 28.1045 11.26 27.8311C10.9084 27.792 10.6252 27.6357 10.4103 27.3623C10.1955 27.0889 10.0881 26.7959 10.0881 26.4834V24.4912C8.87714 24.0615 7.80292 23.4365 6.86542 22.6162L5.1662 23.6123C4.50214 24.0029 3.9162 23.9053 3.40839 23.3193C2.15839 21.7959 1.33808 20.5068 0.947453 19.4521C0.674016 18.71 0.869328 18.1436 1.53339 17.7529L3.46698 16.7568C3.23261 15.5068 3.23261 14.2764 3.46698 13.0654L1.53339 12.0693C0.830266 11.6787 0.634953 11.1123 0.947453 10.3701C1.33808 9.31543 2.15839 8.02637 3.40839 6.50293C3.87714 5.91699 4.46308 5.81934 5.1662 6.20996L6.86542 7.14746C7.84198 6.32715 8.9162 5.72168 10.0881 5.33105V3.33887C10.0881 2.9873 10.1955 2.68457 10.4103 2.43066C10.6252 2.17676 10.9084 2.03027 11.26 1.99121C12.7443 1.71777 14.2287 1.71777 15.7131 1.99121C15.8693 1.99121 16.0158 2.04004 16.1525 2.1377C16.2892 2.23535 16.4162 2.34277 16.5334 2.45996C16.6506 2.57715 16.7385 2.71387 16.7971 2.87012C16.8557 3.02637 16.885 3.18262 16.885 3.33887V5.33105C18.0568 5.76074 19.1115 6.36621 20.049 7.14746L21.8068 6.20996C22.4709 5.78027 23.0568 5.87793 23.5646 6.50293C24.8146 7.9873 25.635 9.27637 26.0256 10.3701C26.299 11.1123 26.1037 11.6787 25.4396 12.0693L23.4475 13.0654C23.6818 14.2764 23.6818 15.5068 23.4475 16.7568ZM16.592 17.9873C17.256 17.1279 17.6271 16.2295 17.7053 15.292C17.7834 14.3545 17.6076 13.5439 17.1779 12.8604C16.7482 12.1768 16.1916 11.6201 15.508 11.1904C14.8244 10.7607 14.0139 10.5947 13.0764 10.6924C12.1389 10.79 11.2404 11.1709 10.381 11.835C9.71698 12.6943 9.34589 13.5928 9.26777 14.5303C9.18964 15.4678 9.36542 16.2783 9.79511 16.9619C10.2248 17.6455 10.7814 18.2021 11.465 18.6318C12.1486 19.0615 12.9592 19.2275 13.8967 19.1299C14.8342 19.0322 15.7326 18.6514 16.592 17.9873ZM30.8303 28.71L30.3615 29.5303C30.1662 29.8818 29.8732 29.999 29.4826 29.8818C28.7795 29.6084 28.1545 29.2373 27.6076 28.7686C27.2951 28.4951 27.2365 28.1826 27.4318 27.8311L27.9006 27.0107C27.51 26.542 27.1975 26.0146 26.9631 25.4287H26.0256C25.5959 25.4287 25.3615 25.2139 25.3225 24.7842C25.1662 24.0811 25.1662 23.3584 25.3225 22.6162C25.3615 22.2256 25.5959 22.0303 26.0256 22.0303H26.9631C27.1975 21.4443 27.51 20.8975 27.9006 20.3896L27.4318 19.5693C27.2365 19.2178 27.2951 18.9053 27.6076 18.6318C28.1545 18.1631 28.7795 17.8115 29.4826 17.5771C29.8732 17.4209 30.1662 17.5186 30.3615 17.8701L30.8303 18.749C31.4553 18.6318 32.0803 18.6318 32.7053 18.749L33.174 17.8701C33.3693 17.5186 33.6623 17.4209 34.0529 17.5771C34.756 17.8115 35.381 18.1631 35.9279 18.6318C36.2404 18.9053 36.299 19.2178 36.1037 19.5693L35.635 20.3896C36.0256 20.8975 36.3381 21.4443 36.5725 22.0303H37.51C37.9396 22.0303 38.174 22.2256 38.2131 22.6162C38.3693 23.3584 38.3693 24.0811 38.2131 24.7842C38.174 25.2139 37.9396 25.4287 37.51 25.4287H36.5725C36.3381 26.0146 36.0256 26.542 35.635 27.0107L36.1037 27.8311C36.299 28.1826 36.2404 28.4951 35.9279 28.7686C35.381 29.2373 34.756 29.6084 34.0529 29.8818C33.6623 29.999 33.3693 29.8818 33.174 29.5303L32.7053 28.71C32.0803 28.8271 31.4553 28.8271 30.8303 28.71ZM30.2443 25.2529C30.9475 25.7998 31.6701 25.9561 32.4123 25.7217C33.1545 25.4873 33.6135 25.0283 33.7892 24.3447C33.965 23.6611 33.799 22.9287 33.2912 22.1475C32.5881 21.6006 31.8654 21.4443 31.1232 21.6787C30.381 21.9131 29.9221 22.3721 29.7463 23.0557C29.5705 23.7393 29.7365 24.4717 30.2443 25.2529Z" fill="black"/>
</svg>
