<svg width="30" height="31" viewBox="0 0 30 31" fill="none" xmlns="http://www.w3.org/2000/svg">
<path d="M11.25 12.6074V19.1699C11.25 19.6777 11.0645 20.1172 10.6934 20.4883C10.3223 20.8594 9.88281 21.0449 9.375 21.0449H8.4375C7.38281 21.0449 6.49414 20.6836 5.77148 19.9609C5.04883 19.2383 4.6875 18.3496 4.6875 17.2949V14.4824C4.6875 13.4277 5.04883 12.5391 5.77148 11.8164C6.49414 11.0938 7.38281 10.7324 8.4375 10.7324H9.375C9.88281 10.7324 10.3223 10.918 10.6934 11.2891C11.0645 11.6602 11.25 12.0996 11.25 12.6074ZM21.5625 21.0449H20.625C20.1172 21.0449 19.6777 20.8594 19.3066 20.4883C18.9355 20.1172 18.75 19.6777 18.75 19.1699V12.6074C18.75 12.0996 18.9355 11.6602 19.3066 11.2891C19.6777 10.918 20.1172 10.7324 20.625 10.7324H21.5625C22.6172 10.7324 23.5059 11.0938 24.2285 11.8164C24.9512 12.5391 25.3125 13.4277 25.3125 14.4824V17.2949C25.3125 18.3496 24.9512 19.2383 24.2285 19.9609C23.5059 20.6836 22.6172 21.0449 21.5625 21.0449ZM4.51172 4.84375C4.51172 4.84375 5.23438 4.10645 6.67969 2.63184C8.125 1.15723 10.8984 0.419922 15 0.419922C19.1016 0.419922 22.5977 1.89453 25.4883 4.84375C28.3789 7.79297 29.8828 11.3184 30 15.4199V25.1465C30 26.5918 29.4824 27.832 28.4473 28.8672C27.4121 29.9023 26.1719 30.4199 24.7266 30.4199H14.0625C13.2812 30.4199 12.6172 30.1465 12.0703 29.5996C11.5234 29.0527 11.25 28.3887 11.25 27.6074C11.25 26.8262 11.5234 26.1621 12.0703 25.6152C12.6172 25.0684 13.2812 24.7949 14.0625 24.7949H15.9375C16.7188 24.7949 17.3828 25.0684 17.9297 25.6152C18.4766 26.1621 18.75 26.8262 18.75 27.6074H24.7266C25.3906 27.6074 25.9668 27.3633 26.4551 26.875C26.9434 26.3867 27.1875 25.8105 27.1875 25.1465C27.1875 18.7402 27.1875 15.498 27.1875 15.4199C27.1875 12.0605 25.9961 9.18945 23.6133 6.80664C21.2305 4.42383 18.3594 3.23242 15 3.23242C11.6406 3.23242 8.76953 4.42383 6.38672 6.80664C4.00391 9.18945 2.8125 12.0605 2.8125 15.4199V16.3574C2.8125 16.6309 2.72461 16.8555 2.54883 17.0312C2.37305 17.207 2.14844 17.2949 1.875 17.2949H0.9375C0.664062 17.2949 0.439453 17.207 0.263672 17.0312C0.0878906 16.8555 0 16.6309 0 16.3574V15.4199C0.117188 11.3184 1.62109 7.79297 4.51172 4.84375Z" fill="black"/>
</svg>
