<svg width="833" height="746" viewBox="0 0 833 746" fill="none" xmlns="http://www.w3.org/2000/svg">
<ellipse cx="5.40909" cy="4.83784" rx="5.40909" ry="4.83784" fill="#343434"/>
<ellipse cx="48.6772" cy="4.83784" rx="5.40909" ry="4.83784" fill="#343434"/>
<ellipse cx="91.9555" cy="4.83784" rx="5.40909" ry="4.83784" fill="#343434"/>
<ellipse cx="135.223" cy="4.83784" rx="5.40909" ry="4.83784" fill="#343434"/>
<ellipse cx="178.501" cy="4.83784" rx="5.40909" ry="4.83784" fill="#343434"/>
<ellipse cx="221.769" cy="4.83784" rx="5.40909" ry="4.83784" fill="#343434"/>
<ellipse cx="265.048" cy="4.83784" rx="5.40909" ry="4.83784" fill="#343434"/>
<ellipse cx="308.316" cy="4.83784" rx="5.40909" ry="4.83784" fill="#343434"/>
<ellipse cx="351.596" cy="4.83784" rx="5.40909" ry="4.83784" fill="#343434"/>
<ellipse cx="394.864" cy="4.83784" rx="5.40909" ry="4.83784" fill="#343434"/>
<ellipse cx="438.142" cy="4.83784" rx="5.40909" ry="4.83784" fill="#343434"/>
<ellipse cx="481.41" cy="4.83784" rx="5.40909" ry="4.83784" fill="#343434"/>
<ellipse cx="524.678" cy="4.83784" rx="5.40909" ry="4.83784" fill="#343434"/>
<ellipse cx="567.956" cy="4.83784" rx="5.40909" ry="4.83784" fill="#343434"/>
<ellipse cx="611.224" cy="4.83784" rx="5.40909" ry="4.83784" fill="#343434"/>
<ellipse cx="654.502" cy="4.83784" rx="5.40909" ry="4.83784" fill="#343434"/>
<ellipse cx="697.77" cy="4.83784" rx="5.40909" ry="4.83784" fill="#343434"/>
<ellipse cx="741.049" cy="4.83784" rx="5.40909" ry="4.83784" fill="#343434"/>
<ellipse cx="784.316" cy="4.83784" rx="5.40909" ry="4.83784" fill="#343434"/>
<ellipse cx="827.593" cy="4.83784" rx="5.40909" ry="4.83784" fill="#343434"/>
<ellipse cx="5.40909" cy="43.541" rx="5.40909" ry="4.83784" fill="#343434"/>
<ellipse cx="48.6772" cy="43.541" rx="5.40909" ry="4.83784" fill="#343434"/>
<ellipse cx="91.9555" cy="43.541" rx="5.40909" ry="4.83784" fill="#343434"/>
<ellipse cx="135.223" cy="43.541" rx="5.40909" ry="4.83784" fill="#343434"/>
<ellipse cx="178.501" cy="43.541" rx="5.40909" ry="4.83784" fill="#343434"/>
<ellipse cx="221.769" cy="43.541" rx="5.40909" ry="4.83784" fill="#343434"/>
<ellipse cx="265.048" cy="43.541" rx="5.40909" ry="4.83784" fill="#343434"/>
<ellipse cx="308.316" cy="43.541" rx="5.40909" ry="4.83784" fill="#343434"/>
<ellipse cx="351.596" cy="43.541" rx="5.40909" ry="4.83784" fill="#343434"/>
<ellipse cx="394.864" cy="43.541" rx="5.40909" ry="4.83784" fill="#343434"/>
<ellipse cx="438.142" cy="43.541" rx="5.40909" ry="4.83784" fill="#343434"/>
<ellipse cx="481.41" cy="43.541" rx="5.40909" ry="4.83784" fill="#343434"/>
<ellipse cx="524.678" cy="43.541" rx="5.40909" ry="4.83784" fill="#343434"/>
<ellipse cx="567.956" cy="43.541" rx="5.40909" ry="4.83784" fill="#343434"/>
<ellipse cx="611.224" cy="43.541" rx="5.40909" ry="4.83784" fill="#343434"/>
<ellipse cx="654.502" cy="43.541" rx="5.40909" ry="4.83784" fill="#343434"/>
<ellipse cx="697.77" cy="43.541" rx="5.40909" ry="4.83784" fill="#343434"/>
<ellipse cx="741.049" cy="43.541" rx="5.40909" ry="4.83784" fill="#343434"/>
<ellipse cx="784.316" cy="43.541" rx="5.40909" ry="4.83784" fill="#343434"/>
<ellipse cx="827.593" cy="43.541" rx="5.40909" ry="4.83784" fill="#343434"/>
<ellipse cx="5.40909" cy="82.2421" rx="5.40909" ry="4.83784" fill="#343434"/>
<ellipse cx="48.6772" cy="82.2421" rx="5.40909" ry="4.83784" fill="#343434"/>
<ellipse cx="91.9555" cy="82.2421" rx="5.40909" ry="4.83784" fill="#343434"/>
<ellipse cx="135.223" cy="82.2421" rx="5.40909" ry="4.83784" fill="#343434"/>
<ellipse cx="178.501" cy="82.2421" rx="5.40909" ry="4.83784" fill="#343434"/>
<ellipse cx="221.769" cy="82.2421" rx="5.40909" ry="4.83784" fill="#343434"/>
<ellipse cx="265.048" cy="82.2421" rx="5.40909" ry="4.83784" fill="#343434"/>
<ellipse cx="308.316" cy="82.2421" rx="5.40909" ry="4.83784" fill="#343434"/>
<ellipse cx="351.596" cy="82.2421" rx="5.40909" ry="4.83784" fill="#343434"/>
<ellipse cx="394.864" cy="82.2421" rx="5.40909" ry="4.83784" fill="#343434"/>
<ellipse cx="438.142" cy="82.2421" rx="5.40909" ry="4.83784" fill="#343434"/>
<ellipse cx="481.41" cy="82.2421" rx="5.40909" ry="4.83784" fill="#343434"/>
<ellipse cx="524.678" cy="82.2421" rx="5.40909" ry="4.83784" fill="#343434"/>
<ellipse cx="567.956" cy="82.2421" rx="5.40909" ry="4.83784" fill="#343434"/>
<ellipse cx="611.224" cy="82.2421" rx="5.40909" ry="4.83784" fill="#343434"/>
<ellipse cx="654.502" cy="82.2421" rx="5.40909" ry="4.83784" fill="#343434"/>
<ellipse cx="697.77" cy="82.2421" rx="5.40909" ry="4.83784" fill="#343434"/>
<ellipse cx="741.049" cy="82.2421" rx="5.40909" ry="4.83784" fill="#343434"/>
<ellipse cx="784.316" cy="82.2421" rx="5.40909" ry="4.83784" fill="#343434"/>
<ellipse cx="827.593" cy="82.2421" rx="5.40909" ry="4.83784" fill="#343434"/>
<ellipse cx="5.40909" cy="120.947" rx="5.40909" ry="4.83784" fill="#343434"/>
<ellipse cx="48.6772" cy="120.947" rx="5.40909" ry="4.83784" fill="#343434"/>
<ellipse cx="91.9555" cy="120.947" rx="5.40909" ry="4.83784" fill="#343434"/>
<ellipse cx="135.223" cy="120.947" rx="5.40909" ry="4.83784" fill="#343434"/>
<ellipse cx="178.501" cy="120.947" rx="5.40909" ry="4.83784" fill="#343434"/>
<ellipse cx="221.769" cy="120.947" rx="5.40909" ry="4.83784" fill="#343434"/>
<ellipse cx="265.048" cy="120.947" rx="5.40909" ry="4.83784" fill="#343434"/>
<ellipse cx="308.316" cy="120.947" rx="5.40909" ry="4.83784" fill="#343434"/>
<ellipse cx="351.596" cy="120.947" rx="5.40909" ry="4.83784" fill="#343434"/>
<ellipse cx="394.864" cy="120.947" rx="5.40909" ry="4.83784" fill="#343434"/>
<ellipse cx="438.142" cy="120.947" rx="5.40909" ry="4.83784" fill="#343434"/>
<ellipse cx="481.41" cy="120.947" rx="5.40909" ry="4.83784" fill="#343434"/>
<ellipse cx="524.678" cy="120.947" rx="5.40909" ry="4.83784" fill="#343434"/>
<ellipse cx="567.956" cy="120.947" rx="5.40909" ry="4.83784" fill="#343434"/>
<ellipse cx="611.224" cy="120.947" rx="5.40909" ry="4.83784" fill="#343434"/>
<ellipse cx="654.502" cy="120.947" rx="5.40909" ry="4.83784" fill="#343434"/>
<ellipse cx="697.77" cy="120.947" rx="5.40909" ry="4.83784" fill="#343434"/>
<ellipse cx="741.049" cy="120.947" rx="5.40909" ry="4.83784" fill="#343434"/>
<ellipse cx="784.316" cy="120.947" rx="5.40909" ry="4.83784" fill="#343434"/>
<ellipse cx="827.593" cy="120.947" rx="5.40909" ry="4.83784" fill="#343434"/>
<ellipse cx="5.40909" cy="159.648" rx="5.40909" ry="4.83784" fill="#343434"/>
<ellipse cx="48.6772" cy="159.648" rx="5.40909" ry="4.83784" fill="#343434"/>
<ellipse cx="91.9555" cy="159.648" rx="5.40909" ry="4.83784" fill="#343434"/>
<ellipse cx="135.223" cy="159.648" rx="5.40909" ry="4.83784" fill="#343434"/>
<ellipse cx="178.501" cy="159.648" rx="5.40909" ry="4.83784" fill="#343434"/>
<ellipse cx="221.769" cy="159.648" rx="5.40909" ry="4.83784" fill="#343434"/>
<ellipse cx="265.048" cy="159.648" rx="5.40909" ry="4.83784" fill="#343434"/>
<ellipse cx="308.316" cy="159.648" rx="5.40909" ry="4.83784" fill="#343434"/>
<ellipse cx="351.596" cy="159.648" rx="5.40909" ry="4.83784" fill="#343434"/>
<ellipse cx="394.864" cy="159.648" rx="5.40909" ry="4.83784" fill="#343434"/>
<ellipse cx="438.142" cy="159.648" rx="5.40909" ry="4.83784" fill="#343434"/>
<ellipse cx="481.41" cy="159.648" rx="5.40909" ry="4.83784" fill="#343434"/>
<ellipse cx="524.678" cy="159.648" rx="5.40909" ry="4.83784" fill="#343434"/>
<ellipse cx="567.956" cy="159.648" rx="5.40909" ry="4.83784" fill="#343434"/>
<ellipse cx="611.224" cy="159.648" rx="5.40909" ry="4.83784" fill="#343434"/>
<ellipse cx="654.502" cy="159.648" rx="5.40909" ry="4.83784" fill="#343434"/>
<ellipse cx="697.77" cy="159.648" rx="5.40909" ry="4.83784" fill="#343434"/>
<ellipse cx="741.049" cy="159.648" rx="5.40909" ry="4.83784" fill="#343434"/>
<ellipse cx="784.316" cy="159.648" rx="5.40909" ry="4.83784" fill="#343434"/>
<ellipse cx="827.593" cy="159.648" rx="5.40909" ry="4.83784" fill="#343434"/>
<ellipse cx="5.40909" cy="198.352" rx="5.40909" ry="4.83784" fill="#343434"/>
<ellipse cx="48.6772" cy="198.352" rx="5.40909" ry="4.83784" fill="#343434"/>
<ellipse cx="91.9555" cy="198.352" rx="5.40909" ry="4.83784" fill="#343434"/>
<ellipse cx="135.223" cy="198.352" rx="5.40909" ry="4.83784" fill="#343434"/>
<ellipse cx="178.501" cy="198.352" rx="5.40909" ry="4.83784" fill="#343434"/>
<ellipse cx="221.769" cy="198.352" rx="5.40909" ry="4.83784" fill="#343434"/>
<ellipse cx="265.048" cy="198.352" rx="5.40909" ry="4.83784" fill="#343434"/>
<ellipse cx="308.316" cy="198.352" rx="5.40909" ry="4.83784" fill="#343434"/>
<ellipse cx="351.596" cy="198.352" rx="5.40909" ry="4.83784" fill="#343434"/>
<ellipse cx="394.864" cy="198.352" rx="5.40909" ry="4.83784" fill="#343434"/>
<ellipse cx="438.142" cy="198.352" rx="5.40909" ry="4.83784" fill="#343434"/>
<ellipse cx="481.41" cy="198.352" rx="5.40909" ry="4.83784" fill="#343434"/>
<ellipse cx="524.678" cy="198.352" rx="5.40909" ry="4.83784" fill="#343434"/>
<ellipse cx="567.956" cy="198.352" rx="5.40909" ry="4.83784" fill="#343434"/>
<ellipse cx="611.224" cy="198.352" rx="5.40909" ry="4.83784" fill="#343434"/>
<ellipse cx="654.502" cy="198.352" rx="5.40909" ry="4.83784" fill="#343434"/>
<ellipse cx="697.77" cy="198.352" rx="5.40909" ry="4.83784" fill="#343434"/>
<ellipse cx="741.049" cy="198.352" rx="5.40909" ry="4.83784" fill="#343434"/>
<ellipse cx="784.316" cy="198.352" rx="5.40909" ry="4.83784" fill="#343434"/>
<ellipse cx="827.593" cy="198.352" rx="5.40909" ry="4.83784" fill="#343434"/>
<ellipse cx="5.40909" cy="237.055" rx="5.40909" ry="4.83784" fill="#343434"/>
<ellipse cx="48.6772" cy="237.055" rx="5.40909" ry="4.83784" fill="#343434"/>
<ellipse cx="91.9555" cy="237.055" rx="5.40909" ry="4.83784" fill="#343434"/>
<ellipse cx="135.223" cy="237.055" rx="5.40909" ry="4.83784" fill="#343434"/>
<ellipse cx="178.501" cy="237.055" rx="5.40909" ry="4.83784" fill="#343434"/>
<ellipse cx="221.769" cy="237.055" rx="5.40909" ry="4.83784" fill="#343434"/>
<ellipse cx="265.048" cy="237.055" rx="5.40909" ry="4.83784" fill="#343434"/>
<ellipse cx="308.316" cy="237.055" rx="5.40909" ry="4.83784" fill="#343434"/>
<ellipse cx="351.596" cy="237.055" rx="5.40909" ry="4.83784" fill="#343434"/>
<ellipse cx="394.864" cy="237.055" rx="5.40909" ry="4.83784" fill="#343434"/>
<ellipse cx="438.142" cy="237.055" rx="5.40909" ry="4.83784" fill="#343434"/>
<ellipse cx="481.41" cy="237.055" rx="5.40909" ry="4.83784" fill="#343434"/>
<ellipse cx="524.678" cy="237.055" rx="5.40909" ry="4.83784" fill="#343434"/>
<ellipse cx="567.956" cy="237.055" rx="5.40909" ry="4.83784" fill="#343434"/>
<ellipse cx="611.224" cy="237.055" rx="5.40909" ry="4.83784" fill="#343434"/>
<ellipse cx="654.502" cy="237.055" rx="5.40909" ry="4.83784" fill="#343434"/>
<ellipse cx="697.77" cy="237.055" rx="5.40909" ry="4.83784" fill="#343434"/>
<ellipse cx="741.049" cy="237.055" rx="5.40909" ry="4.83784" fill="#343434"/>
<ellipse cx="784.316" cy="237.055" rx="5.40909" ry="4.83784" fill="#343434"/>
<ellipse cx="827.593" cy="237.055" rx="5.40909" ry="4.83784" fill="#343434"/>
<ellipse cx="5.40909" cy="275.758" rx="5.40909" ry="4.83784" fill="#343434"/>
<ellipse cx="48.6772" cy="275.758" rx="5.40909" ry="4.83784" fill="#343434"/>
<ellipse cx="91.9555" cy="275.758" rx="5.40909" ry="4.83784" fill="#343434"/>
<ellipse cx="135.223" cy="275.758" rx="5.40909" ry="4.83784" fill="#343434"/>
<ellipse cx="178.501" cy="275.758" rx="5.40909" ry="4.83784" fill="#343434"/>
<ellipse cx="221.769" cy="275.758" rx="5.40909" ry="4.83784" fill="#343434"/>
<ellipse cx="265.048" cy="275.758" rx="5.40909" ry="4.83784" fill="#343434"/>
<ellipse cx="308.316" cy="275.758" rx="5.40909" ry="4.83784" fill="#343434"/>
<ellipse cx="351.596" cy="275.758" rx="5.40909" ry="4.83784" fill="#343434"/>
<ellipse cx="394.864" cy="275.758" rx="5.40909" ry="4.83784" fill="#343434"/>
<ellipse cx="438.142" cy="275.758" rx="5.40909" ry="4.83784" fill="#343434"/>
<ellipse cx="481.41" cy="275.758" rx="5.40909" ry="4.83784" fill="#343434"/>
<ellipse cx="524.678" cy="275.758" rx="5.40909" ry="4.83784" fill="#343434"/>
<ellipse cx="567.956" cy="275.758" rx="5.40909" ry="4.83784" fill="#343434"/>
<ellipse cx="611.224" cy="275.758" rx="5.40909" ry="4.83784" fill="#343434"/>
<ellipse cx="654.502" cy="275.758" rx="5.40909" ry="4.83784" fill="#343434"/>
<ellipse cx="697.77" cy="275.758" rx="5.40909" ry="4.83784" fill="#343434"/>
<ellipse cx="741.049" cy="275.758" rx="5.40909" ry="4.83784" fill="#343434"/>
<ellipse cx="784.316" cy="275.758" rx="5.40909" ry="4.83784" fill="#343434"/>
<ellipse cx="827.593" cy="275.758" rx="5.40909" ry="4.83784" fill="#343434"/>
<ellipse cx="5.40909" cy="314.459" rx="5.40909" ry="4.83784" fill="#343434"/>
<ellipse cx="48.6772" cy="314.459" rx="5.40909" ry="4.83784" fill="#343434"/>
<ellipse cx="91.9555" cy="314.459" rx="5.40909" ry="4.83784" fill="#343434"/>
<ellipse cx="135.223" cy="314.459" rx="5.40909" ry="4.83784" fill="#343434"/>
<ellipse cx="178.501" cy="314.459" rx="5.40909" ry="4.83784" fill="#343434"/>
<ellipse cx="221.769" cy="314.459" rx="5.40909" ry="4.83784" fill="#343434"/>
<ellipse cx="265.048" cy="314.459" rx="5.40909" ry="4.83784" fill="#343434"/>
<ellipse cx="308.316" cy="314.459" rx="5.40909" ry="4.83784" fill="#343434"/>
<ellipse cx="351.596" cy="314.459" rx="5.40909" ry="4.83784" fill="#343434"/>
<ellipse cx="394.864" cy="314.459" rx="5.40909" ry="4.83784" fill="#343434"/>
<ellipse cx="438.142" cy="314.459" rx="5.40909" ry="4.83784" fill="#343434"/>
<ellipse cx="481.41" cy="314.459" rx="5.40909" ry="4.83784" fill="#343434"/>
<ellipse cx="524.678" cy="314.459" rx="5.40909" ry="4.83784" fill="#343434"/>
<ellipse cx="567.956" cy="314.459" rx="5.40909" ry="4.83784" fill="#343434"/>
<ellipse cx="611.224" cy="314.459" rx="5.40909" ry="4.83784" fill="#343434"/>
<ellipse cx="654.502" cy="314.459" rx="5.40909" ry="4.83784" fill="#343434"/>
<ellipse cx="697.77" cy="314.459" rx="5.40909" ry="4.83784" fill="#343434"/>
<ellipse cx="741.049" cy="314.459" rx="5.40909" ry="4.83784" fill="#343434"/>
<ellipse cx="784.316" cy="314.459" rx="5.40909" ry="4.83784" fill="#343434"/>
<ellipse cx="827.593" cy="314.459" rx="5.40909" ry="4.83784" fill="#343434"/>
<ellipse cx="5.40909" cy="353.162" rx="5.40909" ry="4.83784" fill="#343434"/>
<ellipse cx="48.6772" cy="353.162" rx="5.40909" ry="4.83784" fill="#343434"/>
<ellipse cx="91.9555" cy="353.162" rx="5.40909" ry="4.83784" fill="#343434"/>
<ellipse cx="135.223" cy="353.162" rx="5.40909" ry="4.83784" fill="#343434"/>
<ellipse cx="178.501" cy="353.162" rx="5.40909" ry="4.83784" fill="#343434"/>
<ellipse cx="221.769" cy="353.162" rx="5.40909" ry="4.83784" fill="#343434"/>
<ellipse cx="265.048" cy="353.162" rx="5.40909" ry="4.83784" fill="#343434"/>
<ellipse cx="308.316" cy="353.162" rx="5.40909" ry="4.83784" fill="#343434"/>
<ellipse cx="351.596" cy="353.162" rx="5.40909" ry="4.83784" fill="#343434"/>
<ellipse cx="394.864" cy="353.162" rx="5.40909" ry="4.83784" fill="#343434"/>
<ellipse cx="438.142" cy="353.162" rx="5.40909" ry="4.83784" fill="#343434"/>
<ellipse cx="481.41" cy="353.162" rx="5.40909" ry="4.83784" fill="#343434"/>
<ellipse cx="524.678" cy="353.162" rx="5.40909" ry="4.83784" fill="#343434"/>
<ellipse cx="567.956" cy="353.162" rx="5.40909" ry="4.83784" fill="#343434"/>
<ellipse cx="611.224" cy="353.162" rx="5.40909" ry="4.83784" fill="#343434"/>
<ellipse cx="654.502" cy="353.162" rx="5.40909" ry="4.83784" fill="#343434"/>
<ellipse cx="697.77" cy="353.162" rx="5.40909" ry="4.83784" fill="#343434"/>
<ellipse cx="741.049" cy="353.162" rx="5.40909" ry="4.83784" fill="#343434"/>
<ellipse cx="784.316" cy="353.162" rx="5.40909" ry="4.83784" fill="#343434"/>
<ellipse cx="827.593" cy="353.162" rx="5.40909" ry="4.83784" fill="#343434"/>
<ellipse cx="5.40909" cy="391.863" rx="5.40909" ry="4.83784" fill="#343434"/>
<ellipse cx="48.6772" cy="391.863" rx="5.40909" ry="4.83784" fill="#343434"/>
<ellipse cx="91.9555" cy="391.863" rx="5.40909" ry="4.83784" fill="#343434"/>
<ellipse cx="135.223" cy="391.863" rx="5.40909" ry="4.83784" fill="#343434"/>
<ellipse cx="178.501" cy="391.863" rx="5.40909" ry="4.83784" fill="#343434"/>
<ellipse cx="221.769" cy="391.863" rx="5.40909" ry="4.83784" fill="#343434"/>
<ellipse cx="265.048" cy="391.863" rx="5.40909" ry="4.83784" fill="#343434"/>
<ellipse cx="308.316" cy="391.863" rx="5.40909" ry="4.83784" fill="#343434"/>
<ellipse cx="351.596" cy="391.863" rx="5.40909" ry="4.83784" fill="#343434"/>
<ellipse cx="394.864" cy="391.863" rx="5.40909" ry="4.83784" fill="#343434"/>
<ellipse cx="438.142" cy="391.863" rx="5.40909" ry="4.83784" fill="#343434"/>
<ellipse cx="481.41" cy="391.863" rx="5.40909" ry="4.83784" fill="#343434"/>
<ellipse cx="524.678" cy="391.863" rx="5.40909" ry="4.83784" fill="#343434"/>
<ellipse cx="567.956" cy="391.863" rx="5.40909" ry="4.83784" fill="#343434"/>
<ellipse cx="611.224" cy="391.863" rx="5.40909" ry="4.83784" fill="#343434"/>
<ellipse cx="654.502" cy="391.863" rx="5.40909" ry="4.83784" fill="#343434"/>
<ellipse cx="697.77" cy="391.863" rx="5.40909" ry="4.83784" fill="#343434"/>
<ellipse cx="741.049" cy="391.863" rx="5.40909" ry="4.83784" fill="#343434"/>
<ellipse cx="784.316" cy="391.863" rx="5.40909" ry="4.83784" fill="#343434"/>
<ellipse cx="827.593" cy="391.863" rx="5.40909" ry="4.83784" fill="#343434"/>
<ellipse cx="5.40909" cy="430.566" rx="5.40909" ry="4.83784" fill="#343434"/>
<ellipse cx="48.6772" cy="430.566" rx="5.40909" ry="4.83784" fill="#343434"/>
<ellipse cx="91.9555" cy="430.566" rx="5.40909" ry="4.83784" fill="#343434"/>
<ellipse cx="135.223" cy="430.566" rx="5.40909" ry="4.83784" fill="#343434"/>
<ellipse cx="178.501" cy="430.566" rx="5.40909" ry="4.83784" fill="#343434"/>
<ellipse cx="221.769" cy="430.566" rx="5.40909" ry="4.83784" fill="#343434"/>
<ellipse cx="265.048" cy="430.566" rx="5.40909" ry="4.83784" fill="#343434"/>
<ellipse cx="308.316" cy="430.566" rx="5.40909" ry="4.83784" fill="#343434"/>
<ellipse cx="351.596" cy="430.566" rx="5.40909" ry="4.83784" fill="#343434"/>
<ellipse cx="394.864" cy="430.566" rx="5.40909" ry="4.83784" fill="#343434"/>
<ellipse cx="438.142" cy="430.566" rx="5.40909" ry="4.83784" fill="#343434"/>
<ellipse cx="481.41" cy="430.566" rx="5.40909" ry="4.83784" fill="#343434"/>
<ellipse cx="524.678" cy="430.566" rx="5.40909" ry="4.83784" fill="#343434"/>
<ellipse cx="567.956" cy="430.566" rx="5.40909" ry="4.83784" fill="#343434"/>
<ellipse cx="611.224" cy="430.566" rx="5.40909" ry="4.83784" fill="#343434"/>
<ellipse cx="654.502" cy="430.566" rx="5.40909" ry="4.83784" fill="#343434"/>
<ellipse cx="697.77" cy="430.566" rx="5.40909" ry="4.83784" fill="#343434"/>
<ellipse cx="741.049" cy="430.566" rx="5.40909" ry="4.83784" fill="#343434"/>
<ellipse cx="784.316" cy="430.566" rx="5.40909" ry="4.83784" fill="#343434"/>
<ellipse cx="827.593" cy="430.566" rx="5.40909" ry="4.83784" fill="#343434"/>
<ellipse cx="5.40909" cy="469.271" rx="5.40909" ry="4.83784" fill="#343434"/>
<ellipse cx="48.6772" cy="469.271" rx="5.40909" ry="4.83784" fill="#343434"/>
<ellipse cx="91.9555" cy="469.271" rx="5.40909" ry="4.83784" fill="#343434"/>
<ellipse cx="135.223" cy="469.271" rx="5.40909" ry="4.83784" fill="#343434"/>
<ellipse cx="178.501" cy="469.271" rx="5.40909" ry="4.83784" fill="#343434"/>
<ellipse cx="221.769" cy="469.271" rx="5.40909" ry="4.83784" fill="#343434"/>
<ellipse cx="265.048" cy="469.271" rx="5.40909" ry="4.83784" fill="#343434"/>
<ellipse cx="308.316" cy="469.271" rx="5.40909" ry="4.83784" fill="#343434"/>
<ellipse cx="351.596" cy="469.271" rx="5.40909" ry="4.83784" fill="#343434"/>
<ellipse cx="394.864" cy="469.271" rx="5.40909" ry="4.83784" fill="#343434"/>
<ellipse cx="438.142" cy="469.271" rx="5.40909" ry="4.83784" fill="#343434"/>
<ellipse cx="481.41" cy="469.271" rx="5.40909" ry="4.83784" fill="#343434"/>
<ellipse cx="524.678" cy="469.271" rx="5.40909" ry="4.83784" fill="#343434"/>
<ellipse cx="567.956" cy="469.271" rx="5.40909" ry="4.83784" fill="#343434"/>
<ellipse cx="611.224" cy="469.271" rx="5.40909" ry="4.83784" fill="#343434"/>
<ellipse cx="654.502" cy="469.271" rx="5.40909" ry="4.83784" fill="#343434"/>
<ellipse cx="697.77" cy="469.271" rx="5.40909" ry="4.83784" fill="#343434"/>
<ellipse cx="741.049" cy="469.271" rx="5.40909" ry="4.83784" fill="#343434"/>
<ellipse cx="784.316" cy="469.271" rx="5.40909" ry="4.83784" fill="#343434"/>
<ellipse cx="827.593" cy="469.271" rx="5.40909" ry="4.83784" fill="#343434"/>
<ellipse cx="5.40909" cy="507.973" rx="5.40909" ry="4.83784" fill="#343434"/>
<ellipse cx="48.6772" cy="507.973" rx="5.40909" ry="4.83784" fill="#343434"/>
<ellipse cx="91.9555" cy="507.973" rx="5.40909" ry="4.83784" fill="#343434"/>
<ellipse cx="135.223" cy="507.973" rx="5.40909" ry="4.83784" fill="#343434"/>
<ellipse cx="178.501" cy="507.973" rx="5.40909" ry="4.83784" fill="#343434"/>
<ellipse cx="221.769" cy="507.973" rx="5.40909" ry="4.83784" fill="#343434"/>
<ellipse cx="265.048" cy="507.973" rx="5.40909" ry="4.83784" fill="#343434"/>
<ellipse cx="308.316" cy="507.973" rx="5.40909" ry="4.83784" fill="#343434"/>
<ellipse cx="351.596" cy="507.973" rx="5.40909" ry="4.83784" fill="#343434"/>
<ellipse cx="394.864" cy="507.973" rx="5.40909" ry="4.83784" fill="#343434"/>
<ellipse cx="438.142" cy="507.973" rx="5.40909" ry="4.83784" fill="#343434"/>
<ellipse cx="481.41" cy="507.973" rx="5.40909" ry="4.83784" fill="#343434"/>
<ellipse cx="524.678" cy="507.973" rx="5.40909" ry="4.83784" fill="#343434"/>
<ellipse cx="567.956" cy="507.973" rx="5.40909" ry="4.83784" fill="#343434"/>
<ellipse cx="611.224" cy="507.973" rx="5.40909" ry="4.83784" fill="#343434"/>
<ellipse cx="654.502" cy="507.973" rx="5.40909" ry="4.83784" fill="#343434"/>
<ellipse cx="697.77" cy="507.973" rx="5.40909" ry="4.83784" fill="#343434"/>
<ellipse cx="741.049" cy="507.973" rx="5.40909" ry="4.83784" fill="#343434"/>
<ellipse cx="784.316" cy="507.973" rx="5.40909" ry="4.83784" fill="#343434"/>
<ellipse cx="827.593" cy="507.973" rx="5.40909" ry="4.83784" fill="#343434"/>
<ellipse cx="5.40909" cy="546.676" rx="5.40909" ry="4.83784" fill="#343434"/>
<ellipse cx="48.6772" cy="546.676" rx="5.40909" ry="4.83784" fill="#343434"/>
<ellipse cx="91.9555" cy="546.676" rx="5.40909" ry="4.83784" fill="#343434"/>
<ellipse cx="135.223" cy="546.676" rx="5.40909" ry="4.83784" fill="#343434"/>
<ellipse cx="178.501" cy="546.676" rx="5.40909" ry="4.83784" fill="#343434"/>
<ellipse cx="221.769" cy="546.676" rx="5.40909" ry="4.83784" fill="#343434"/>
<ellipse cx="265.048" cy="546.676" rx="5.40909" ry="4.83784" fill="#343434"/>
<ellipse cx="308.316" cy="546.676" rx="5.40909" ry="4.83784" fill="#343434"/>
<ellipse cx="351.596" cy="546.676" rx="5.40909" ry="4.83784" fill="#343434"/>
<ellipse cx="394.864" cy="546.676" rx="5.40909" ry="4.83784" fill="#343434"/>
<ellipse cx="438.142" cy="546.676" rx="5.40909" ry="4.83784" fill="#343434"/>
<ellipse cx="481.41" cy="546.676" rx="5.40909" ry="4.83784" fill="#343434"/>
<ellipse cx="524.678" cy="546.676" rx="5.40909" ry="4.83784" fill="#343434"/>
<ellipse cx="567.956" cy="546.676" rx="5.40909" ry="4.83784" fill="#343434"/>
<ellipse cx="611.224" cy="546.676" rx="5.40909" ry="4.83784" fill="#343434"/>
<ellipse cx="654.502" cy="546.676" rx="5.40909" ry="4.83784" fill="#343434"/>
<ellipse cx="697.77" cy="546.676" rx="5.40909" ry="4.83784" fill="#343434"/>
<ellipse cx="741.049" cy="546.676" rx="5.40909" ry="4.83784" fill="#343434"/>
<ellipse cx="784.316" cy="546.676" rx="5.40909" ry="4.83784" fill="#343434"/>
<ellipse cx="827.593" cy="546.676" rx="5.40909" ry="4.83784" fill="#343434"/>
<ellipse cx="5.40909" cy="585.379" rx="5.40909" ry="4.83784" fill="#343434"/>
<ellipse cx="48.6772" cy="585.379" rx="5.40909" ry="4.83784" fill="#343434"/>
<ellipse cx="91.9555" cy="585.379" rx="5.40909" ry="4.83784" fill="#343434"/>
<ellipse cx="135.223" cy="585.379" rx="5.40909" ry="4.83784" fill="#343434"/>
<ellipse cx="178.501" cy="585.379" rx="5.40909" ry="4.83784" fill="#343434"/>
<ellipse cx="221.769" cy="585.379" rx="5.40909" ry="4.83784" fill="#343434"/>
<ellipse cx="265.048" cy="585.379" rx="5.40909" ry="4.83784" fill="#343434"/>
<ellipse cx="308.316" cy="585.379" rx="5.40909" ry="4.83784" fill="#343434"/>
<ellipse cx="351.596" cy="585.379" rx="5.40909" ry="4.83784" fill="#343434"/>
<ellipse cx="394.864" cy="585.379" rx="5.40909" ry="4.83784" fill="#343434"/>
<ellipse cx="438.142" cy="585.379" rx="5.40909" ry="4.83784" fill="#343434"/>
<ellipse cx="481.41" cy="585.379" rx="5.40909" ry="4.83784" fill="#343434"/>
<ellipse cx="524.678" cy="585.379" rx="5.40909" ry="4.83784" fill="#343434"/>
<ellipse cx="567.956" cy="585.379" rx="5.40909" ry="4.83784" fill="#343434"/>
<ellipse cx="611.224" cy="585.379" rx="5.40909" ry="4.83784" fill="#343434"/>
<ellipse cx="654.502" cy="585.379" rx="5.40909" ry="4.83784" fill="#343434"/>
<ellipse cx="697.77" cy="585.379" rx="5.40909" ry="4.83784" fill="#343434"/>
<ellipse cx="741.049" cy="585.379" rx="5.40909" ry="4.83784" fill="#343434"/>
<ellipse cx="784.316" cy="585.379" rx="5.40909" ry="4.83784" fill="#343434"/>
<ellipse cx="827.593" cy="585.379" rx="5.40909" ry="4.83784" fill="#343434"/>
<ellipse cx="5.40909" cy="624.08" rx="5.40909" ry="4.83784" fill="#343434"/>
<ellipse cx="48.6772" cy="624.08" rx="5.40909" ry="4.83784" fill="#343434"/>
<ellipse cx="91.9555" cy="624.08" rx="5.40909" ry="4.83784" fill="#343434"/>
<ellipse cx="135.223" cy="624.08" rx="5.40909" ry="4.83784" fill="#343434"/>
<ellipse cx="178.501" cy="624.08" rx="5.40909" ry="4.83784" fill="#343434"/>
<ellipse cx="221.769" cy="624.08" rx="5.40909" ry="4.83784" fill="#343434"/>
<ellipse cx="265.048" cy="624.08" rx="5.40909" ry="4.83784" fill="#343434"/>
<ellipse cx="308.316" cy="624.08" rx="5.40909" ry="4.83784" fill="#343434"/>
<ellipse cx="351.596" cy="624.08" rx="5.40909" ry="4.83784" fill="#343434"/>
<ellipse cx="394.864" cy="624.08" rx="5.40909" ry="4.83784" fill="#343434"/>
<ellipse cx="438.142" cy="624.08" rx="5.40909" ry="4.83784" fill="#343434"/>
<ellipse cx="481.41" cy="624.08" rx="5.40909" ry="4.83784" fill="#343434"/>
<ellipse cx="524.678" cy="624.08" rx="5.40909" ry="4.83784" fill="#343434"/>
<ellipse cx="567.956" cy="624.08" rx="5.40909" ry="4.83784" fill="#343434"/>
<ellipse cx="611.224" cy="624.08" rx="5.40909" ry="4.83784" fill="#343434"/>
<ellipse cx="654.502" cy="624.08" rx="5.40909" ry="4.83784" fill="#343434"/>
<ellipse cx="697.77" cy="624.08" rx="5.40909" ry="4.83784" fill="#343434"/>
<ellipse cx="741.049" cy="624.08" rx="5.40909" ry="4.83784" fill="#343434"/>
<ellipse cx="784.316" cy="624.08" rx="5.40909" ry="4.83784" fill="#343434"/>
<ellipse cx="827.593" cy="624.08" rx="5.40909" ry="4.83784" fill="#343434"/>
<ellipse cx="5.40909" cy="662.783" rx="5.40909" ry="4.83784" fill="#343434"/>
<ellipse cx="48.6772" cy="662.783" rx="5.40909" ry="4.83784" fill="#343434"/>
<ellipse cx="91.9555" cy="662.783" rx="5.40909" ry="4.83784" fill="#343434"/>
<ellipse cx="135.223" cy="662.783" rx="5.40909" ry="4.83784" fill="#343434"/>
<ellipse cx="178.501" cy="662.783" rx="5.40909" ry="4.83784" fill="#343434"/>
<ellipse cx="221.769" cy="662.783" rx="5.40909" ry="4.83784" fill="#343434"/>
<ellipse cx="265.048" cy="662.783" rx="5.40909" ry="4.83784" fill="#343434"/>
<ellipse cx="308.316" cy="662.783" rx="5.40909" ry="4.83784" fill="#343434"/>
<ellipse cx="351.596" cy="662.783" rx="5.40909" ry="4.83784" fill="#343434"/>
<ellipse cx="394.864" cy="662.783" rx="5.40909" ry="4.83784" fill="#343434"/>
<ellipse cx="438.142" cy="662.783" rx="5.40909" ry="4.83784" fill="#343434"/>
<ellipse cx="481.41" cy="662.783" rx="5.40909" ry="4.83784" fill="#343434"/>
<ellipse cx="524.678" cy="662.783" rx="5.40909" ry="4.83784" fill="#343434"/>
<ellipse cx="567.956" cy="662.783" rx="5.40909" ry="4.83784" fill="#343434"/>
<ellipse cx="611.224" cy="662.783" rx="5.40909" ry="4.83784" fill="#343434"/>
<ellipse cx="654.502" cy="662.783" rx="5.40909" ry="4.83784" fill="#343434"/>
<ellipse cx="697.77" cy="662.783" rx="5.40909" ry="4.83784" fill="#343434"/>
<ellipse cx="741.049" cy="662.783" rx="5.40909" ry="4.83784" fill="#343434"/>
<ellipse cx="784.316" cy="662.783" rx="5.40909" ry="4.83784" fill="#343434"/>
<ellipse cx="827.593" cy="662.783" rx="5.40909" ry="4.83784" fill="#343434"/>
<ellipse cx="5.40909" cy="701.486" rx="5.40909" ry="4.83784" fill="#343434"/>
<ellipse cx="48.6772" cy="701.486" rx="5.40909" ry="4.83784" fill="#343434"/>
<ellipse cx="91.9555" cy="701.486" rx="5.40909" ry="4.83784" fill="#343434"/>
<ellipse cx="135.223" cy="701.486" rx="5.40909" ry="4.83784" fill="#343434"/>
<ellipse cx="178.501" cy="701.486" rx="5.40909" ry="4.83784" fill="#343434"/>
<ellipse cx="221.769" cy="701.486" rx="5.40909" ry="4.83784" fill="#343434"/>
<ellipse cx="265.048" cy="701.486" rx="5.40909" ry="4.83784" fill="#343434"/>
<ellipse cx="308.316" cy="701.486" rx="5.40909" ry="4.83784" fill="#343434"/>
<ellipse cx="351.596" cy="701.486" rx="5.40909" ry="4.83784" fill="#343434"/>
<ellipse cx="394.864" cy="701.486" rx="5.40909" ry="4.83784" fill="#343434"/>
<ellipse cx="438.142" cy="701.486" rx="5.40909" ry="4.83784" fill="#343434"/>
<ellipse cx="481.41" cy="701.486" rx="5.40909" ry="4.83784" fill="#343434"/>
<ellipse cx="524.678" cy="701.486" rx="5.40909" ry="4.83784" fill="#343434"/>
<ellipse cx="567.956" cy="701.486" rx="5.40909" ry="4.83784" fill="#343434"/>
<ellipse cx="611.224" cy="701.486" rx="5.40909" ry="4.83784" fill="#343434"/>
<ellipse cx="654.502" cy="701.486" rx="5.40909" ry="4.83784" fill="#343434"/>
<ellipse cx="697.77" cy="701.486" rx="5.40909" ry="4.83784" fill="#343434"/>
<ellipse cx="741.049" cy="701.486" rx="5.40909" ry="4.83784" fill="#343434"/>
<ellipse cx="784.316" cy="701.486" rx="5.40909" ry="4.83784" fill="#343434"/>
<ellipse cx="827.593" cy="701.486" rx="5.40909" ry="4.83784" fill="#343434"/>
<ellipse cx="5.40909" cy="740.187" rx="5.40909" ry="4.83784" fill="#343434"/>
<ellipse cx="48.6772" cy="740.187" rx="5.40909" ry="4.83784" fill="#343434"/>
<ellipse cx="91.9555" cy="740.187" rx="5.40909" ry="4.83784" fill="#343434"/>
<ellipse cx="135.223" cy="740.187" rx="5.40909" ry="4.83784" fill="#343434"/>
<ellipse cx="178.501" cy="740.187" rx="5.40909" ry="4.83784" fill="#343434"/>
<ellipse cx="221.769" cy="740.187" rx="5.40909" ry="4.83784" fill="#343434"/>
<ellipse cx="265.048" cy="740.187" rx="5.40909" ry="4.83784" fill="#343434"/>
<ellipse cx="308.316" cy="740.187" rx="5.40909" ry="4.83784" fill="#343434"/>
<ellipse cx="351.596" cy="740.187" rx="5.40909" ry="4.83784" fill="#343434"/>
<ellipse cx="394.864" cy="740.187" rx="5.40909" ry="4.83784" fill="#343434"/>
<ellipse cx="438.142" cy="740.187" rx="5.40909" ry="4.83784" fill="#343434"/>
<ellipse cx="481.41" cy="740.187" rx="5.40909" ry="4.83784" fill="#343434"/>
<ellipse cx="524.678" cy="740.187" rx="5.40909" ry="4.83784" fill="#343434"/>
<ellipse cx="567.956" cy="740.187" rx="5.40909" ry="4.83784" fill="#343434"/>
<ellipse cx="611.224" cy="740.187" rx="5.40909" ry="4.83784" fill="#343434"/>
<ellipse cx="654.502" cy="740.187" rx="5.40909" ry="4.83784" fill="#343434"/>
<ellipse cx="697.77" cy="740.187" rx="5.40909" ry="4.83784" fill="#343434"/>
<ellipse cx="741.049" cy="740.187" rx="5.40909" ry="4.83784" fill="#343434"/>
<ellipse cx="784.316" cy="740.187" rx="5.40909" ry="4.83784" fill="#343434"/>
<ellipse cx="827.593" cy="740.187" rx="5.40909" ry="4.83784" fill="#343434"/>
</svg>
