<svg width="38" height="30" viewBox="0 0 38 30" fill="none" xmlns="http://www.w3.org/2000/svg">
<g clip-path="url(#clip0_515_7354)">
<path d="M8.26172 12.0117C8.26172 12.0117 8.07617 12.1973 7.70508 12.5684C7.33398 12.9395 6.64062 13.125 5.625 13.125C4.60938 13.125 3.73047 12.7539 2.98828 12.0117C2.24609 11.2695 1.875 10.3906 1.875 9.375C1.875 8.35938 2.24609 7.48047 2.98828 6.73828C3.73047 5.99609 4.60938 5.625 5.625 5.625C6.64062 5.625 7.51953 5.99609 8.26172 6.73828C9.00391 7.48047 9.375 8.35938 9.375 9.375C9.375 10.3906 9.00391 11.2695 8.26172 12.0117ZM34.5117 12.0117C34.5117 12.0117 34.3262 12.1973 33.9551 12.5684C33.584 12.9395 32.8906 13.125 31.875 13.125C30.8594 13.125 29.9805 12.7539 29.2383 12.0117C28.4961 11.2695 28.125 10.3906 28.125 9.375C28.125 8.35938 28.4961 7.48047 29.2383 6.73828C29.9805 5.99609 30.8594 5.625 31.875 5.625C32.8906 5.625 33.7695 5.99609 34.5117 6.73828C35.2539 7.48047 35.625 8.35938 35.625 9.375C35.625 10.3906 35.2539 11.2695 34.5117 12.0117ZM33.75 15C34.7656 15 35.6445 15.3711 36.3867 16.1133C37.1289 16.8555 37.5 17.7344 37.5 18.75V20.625C37.5 21.1328 37.3145 21.5723 36.9434 21.9434C36.5723 22.3145 36.1328 22.5 35.625 22.5H31.7578C31.6406 21.6016 31.3867 20.7422 30.9961 19.9219C30.6055 19.1016 30.0977 18.3691 29.4727 17.7246C28.8477 17.0801 28.1445 16.543 27.3633 16.1133C28.1055 15.3711 28.9844 15 30 15H33.75ZM23.3789 13.0664C23.3789 13.0664 23.0566 13.3887 22.4121 14.0332C21.7676 14.6777 20.5469 15 18.75 15C16.9531 15 15.4102 14.3555 14.1211 13.0664C12.832 11.7773 12.1875 10.2344 12.1875 8.4375C12.1875 6.64062 12.832 5.09766 14.1211 3.80859C15.4102 2.51953 16.9531 1.875 18.75 1.875C20.5469 1.875 22.0898 2.51953 23.3789 3.80859C24.668 5.09766 25.3125 6.64062 25.3125 8.4375C25.3125 10.2344 24.668 11.7773 23.3789 13.0664ZM23.2617 16.875C25.1367 16.875 26.7285 17.5293 28.0371 18.8379C29.3457 20.1465 30 21.7383 30 23.6133V25.3125C30 26.0938 29.7266 26.7578 29.1797 27.3047C28.6328 27.8516 27.9688 28.125 27.1875 28.125H10.3125C9.53125 28.125 8.86719 27.8516 8.32031 27.3047C7.77344 26.7578 7.5 26.0938 7.5 25.3125V23.6133C7.5 21.7383 8.1543 20.1465 9.46289 18.8379C10.7715 17.5293 12.3633 16.875 14.2383 16.875H14.7656C16.0547 17.5 17.3828 17.8125 18.75 17.8125C20.1172 17.8125 21.4453 17.5 22.7344 16.875H23.2617ZM10.1367 16.1133C8.96484 16.7383 7.98828 17.6172 7.20703 18.75C6.42578 19.8828 5.9375 21.1328 5.74219 22.5H1.875C1.36719 22.5 0.927734 22.3145 0.556641 21.9434C0.185547 21.5723 0 21.1328 0 20.625V18.75C0 17.7344 0.371094 16.8555 1.11328 16.1133C1.85547 15.3711 2.73438 15 3.75 15H7.5C8.51562 15 9.39453 15.3711 10.1367 16.1133Z" fill="black"/>
</g>
<defs>
<clipPath id="clip0_515_7354">
<rect width="37.5" height="30" fill="white" transform="matrix(1 0 0 -1 0 30)"/>
</clipPath>
</defs>
</svg>
