<svg width="141" height="23" viewBox="0 0 141 23" fill="none" xmlns="http://www.w3.org/2000/svg">
<g opacity="0.3" clip-path="url(#clip0_672_3580)">
<g clip-path="url(#clip1_672_3580)">
<g clip-path="url(#clip2_672_3580)">
<path d="M9.78271 6.02214V21.9067H4.05879V5.96024C3.31915 5.96024 1.9135 5.96024 1.1941 5.96024C-0.0202377 5.96024 0.0606897 6.19668 0.0606897 5.00223C0.0606897 4.00469 0.0606897 2.17348 0.0606897 1.08044C0.485706 1.06275 0.838966 1.03445 1.19407 1.03445C5.73125 1.03091 10.2684 1.06098 14.8056 1.02384C19.4697 0.986697 22.9159 3.52652 24.489 7.66702C26.11 11.9384 25.1164 15.787 22.1984 19.2095C20.7338 20.9268 18.6657 21.7334 16.4026 21.912C14.7928 22.0393 13.1608 21.9367 11.3742 21.9367C11.3742 20.3998 11.3558 18.884 11.4036 17.3701C11.4074 17.2339 11.8305 17.0127 12.0679 16.9986C13.078 16.9438 14.0918 16.9774 15.1018 16.9349C17.6078 16.8323 19.0245 15.6916 19.4992 13.3498C19.8193 11.7669 19.7384 10.2068 19.1901 8.65041C18.6418 7.09927 17.503 6.19194 15.9224 6.05928C13.9243 5.89302 11.9004 6.0186 9.78454 6.0186L9.78271 6.02214Z" fill="white"/>
<path d="M31.6942 16.6065V5.7615H28.0654V4.25293H36.9888V5.7615H33.3601V16.6065H31.6942Z" fill="white"/>
<path d="M41.1856 16.707C40.5148 16.707 39.932 16.6344 39.4372 16.4891C38.9533 16.3438 38.552 16.1036 38.2331 15.7683C37.9142 15.4219 37.6779 14.9526 37.5239 14.3603C37.37 13.7681 37.293 13.0194 37.293 12.1142C37.293 11.1756 37.37 10.4101 37.5239 9.81787C37.6779 9.21444 37.9142 8.7451 38.2331 8.40987C38.552 8.07463 38.9589 7.84555 39.4537 7.72263C39.9486 7.58853 40.5258 7.52148 41.1856 7.52148C41.8454 7.52148 42.4226 7.58853 42.9175 7.72263C43.4123 7.85672 43.8192 8.09139 44.1381 8.42663C44.457 8.76187 44.6934 9.2312 44.8474 9.83463C45.0012 10.4269 45.0782 11.1868 45.0782 12.1142C45.0782 13.0306 45.0012 13.7904 44.8474 14.3939C44.6934 14.9861 44.457 15.4499 44.1381 15.7851C43.8302 16.1203 43.4289 16.3606 42.934 16.5059C42.4392 16.64 41.8564 16.707 41.1856 16.707ZM41.1856 15.3325C41.5485 15.3325 41.8674 15.299 42.1423 15.232C42.4282 15.1649 42.6646 15.0253 42.8515 14.8129C43.0384 14.5895 43.1814 14.2598 43.2804 13.824C43.3793 13.3882 43.4289 12.8127 43.4289 12.0975C43.4289 11.3823 43.3793 10.8124 43.2804 10.3878C43.1814 9.95196 43.0384 9.6279 42.8515 9.41558C42.6646 9.20327 42.4282 9.06358 42.1423 8.99653C41.8674 8.91832 41.5485 8.8792 41.1856 8.8792C40.8117 8.8792 40.4818 8.91832 40.1959 8.99653C39.921 9.06358 39.6901 9.20327 39.5032 9.41558C39.3272 9.6279 39.1898 9.95196 39.0908 10.3878C39.0029 10.8124 38.9589 11.3823 38.9589 12.0975C38.9589 12.8127 39.0029 13.3882 39.0908 13.824C39.1898 14.2598 39.3272 14.5895 39.5032 14.8129C39.6901 15.0253 39.921 15.1649 40.1959 15.232C40.4818 15.299 40.8117 15.3325 41.1856 15.3325Z" fill="white"/>
<path d="M47.0933 20.579V7.63882H48.4457L48.7426 8.54396C48.9516 8.38752 49.199 8.23108 49.4849 8.07463C49.7818 7.91819 50.1007 7.78968 50.4416 7.6891C50.7935 7.57736 51.1453 7.52148 51.4972 7.52148C52.058 7.52148 52.5364 7.63882 52.9322 7.87348C53.3391 8.10815 53.669 8.43781 53.9219 8.86244C54.1747 9.2759 54.3562 9.762 54.4662 10.3207C54.5872 10.8795 54.6476 11.4773 54.6476 12.1142C54.6476 13.1088 54.5376 13.9525 54.3177 14.6453C54.1089 15.327 53.7734 15.8466 53.3116 16.2042C52.8607 16.5506 52.2559 16.7238 51.4972 16.7238C51.0353 16.7238 50.5626 16.6567 50.0787 16.5226C49.5949 16.3773 49.1495 16.1874 48.7426 15.9527V20.579H47.0933ZM51.0023 15.3158C51.3762 15.3158 51.7117 15.2208 52.0086 15.0308C52.3055 14.8409 52.5418 14.5168 52.7178 14.0586C52.9047 13.5893 52.9982 12.9411 52.9982 12.1142C52.9982 11.332 52.9047 10.7062 52.7178 10.2369C52.5308 9.75641 52.2889 9.41558 51.992 9.21444C51.6951 9.00213 51.3708 8.89596 51.0189 8.89596C50.557 8.89596 50.1337 8.9686 49.7488 9.11387C49.375 9.25914 49.0395 9.41 48.7426 9.56644V14.6788C49.0835 14.8688 49.4464 15.0253 49.8313 15.1482C50.2271 15.2599 50.6176 15.3158 51.0023 15.3158Z" fill="white"/>
<path d="M56.7109 16.6065V4.25293H61.6263C62.3849 4.25293 63.0227 4.39262 63.5395 4.67198C64.0564 4.95135 64.4742 5.35922 64.7931 5.8956C65.112 6.42081 65.343 7.06893 65.4859 7.83998C65.6289 8.59986 65.7003 9.46588 65.7003 10.4381C65.7003 11.7567 65.5463 12.8741 65.2385 13.7905C64.9416 14.7068 64.4908 15.4051 63.886 15.8857C63.2812 16.3662 62.5279 16.6065 61.6263 16.6065H56.7109ZM58.3769 15.0979H61.4778C62.0826 15.0979 62.5719 14.9135 62.9457 14.5447C63.3196 14.1648 63.5945 13.6284 63.7705 12.9356C63.9464 12.2316 64.0344 11.3991 64.0344 10.4381C64.0344 9.55529 63.985 8.81776 63.886 8.2255C63.787 7.62207 63.6331 7.14157 63.4241 6.78398C63.2152 6.41522 62.9457 6.15262 62.6159 5.99617C62.2971 5.83973 61.9176 5.7615 61.4778 5.7615H58.3769V15.0979Z" fill="white"/>
<path d="M71.0789 16.707C70.1443 16.707 69.3965 16.5674 68.8357 16.288C68.2859 16.0086 67.89 15.5392 67.6481 14.88C67.4172 14.2095 67.3018 13.2876 67.3018 12.1142C67.3018 10.9186 67.4172 9.99108 67.6481 9.33177C67.89 8.66129 68.2859 8.19196 68.8357 7.92377C69.3855 7.65558 70.1277 7.52148 71.0624 7.52148C71.8762 7.52148 72.5304 7.61089 73.0252 7.78967C73.5311 7.95729 73.8994 8.2646 74.1303 8.71158C74.3722 9.14739 74.4932 9.75641 74.4932 10.5386C74.4932 11.0862 74.3832 11.522 74.1633 11.8461C73.9545 12.1701 73.652 12.4048 73.2562 12.5501C72.8713 12.6954 72.4094 12.768 71.8706 12.768H68.9511C68.9621 13.4161 69.0336 13.9357 69.1656 14.3268C69.3086 14.7068 69.5559 14.9861 69.9078 15.1649C70.2707 15.3325 70.7985 15.4163 71.4913 15.4163H74.2458V16.4221C73.773 16.4891 73.2892 16.5506 72.7943 16.6064C72.2995 16.6735 71.7277 16.707 71.0789 16.707ZM68.9347 11.712H71.7222C72.1621 11.712 72.4864 11.6282 72.6953 11.4605C72.9043 11.2929 73.0088 10.9856 73.0088 10.5386C73.0088 10.0917 72.9428 9.73965 72.8109 9.48263C72.6899 9.22562 72.4864 9.04123 72.2005 8.92948C71.9146 8.81775 71.5353 8.76187 71.0624 8.76187C70.5236 8.76187 70.0948 8.84568 69.7759 9.01329C69.468 9.18091 69.248 9.47704 69.1161 9.90167C68.9951 10.3263 68.9347 10.9297 68.9347 11.712Z" fill="white"/>
<path d="M78.6707 16.6063L75.4707 7.63867H77.1696L79.6603 15.0474L82.2004 7.63867H83.8993L80.584 16.6063H78.6707Z" fill="white"/>
<path d="M88.4911 16.707C87.5564 16.707 86.8086 16.5674 86.2478 16.288C85.698 16.0086 85.3021 15.5392 85.0602 14.88C84.8293 14.2095 84.7139 13.2876 84.7139 12.1142C84.7139 10.9186 84.8293 9.99108 85.0602 9.33177C85.3021 8.66129 85.698 8.19196 86.2478 7.92377C86.7976 7.65558 87.5398 7.52148 88.4745 7.52148C89.2883 7.52148 89.9425 7.61089 90.4373 7.78967C90.9432 7.95729 91.3116 8.2646 91.5425 8.71158C91.7843 9.14739 91.9053 9.75641 91.9053 10.5386C91.9053 11.0862 91.7954 11.522 91.5755 11.8461C91.3666 12.1701 91.0641 12.4048 90.6683 12.5501C90.2834 12.6954 89.8215 12.768 89.2827 12.768H86.3632C86.3742 13.4161 86.4457 13.9357 86.5777 14.3268C86.7207 14.7068 86.968 14.9861 87.3199 15.1649C87.6828 15.3325 88.2106 15.4163 88.9034 15.4163H91.6579V16.4221C91.1851 16.4891 90.7012 16.5506 90.2064 16.6064C89.7116 16.6735 89.1398 16.707 88.4911 16.707ZM86.3468 11.712H89.1343C89.5742 11.712 89.8985 11.6282 90.1074 11.4605C90.3164 11.2929 90.4209 10.9856 90.4209 10.5386C90.4209 10.0917 90.3549 9.73965 90.223 9.48263C90.102 9.22562 89.8985 9.04123 89.6126 8.92948C89.3267 8.81775 88.9474 8.76187 88.4745 8.76187C87.9357 8.76187 87.5068 8.84568 87.1879 9.01329C86.88 9.18091 86.6601 9.47704 86.5282 9.90167C86.4072 10.3263 86.3468 10.9297 86.3468 11.712Z" fill="white"/>
<path d="M96.3761 16.6235C95.8373 16.6235 95.3809 16.5285 95.007 16.3385C94.6441 16.1486 94.3692 15.8469 94.1824 15.4334C94.0064 15.0088 93.9185 14.4389 93.9185 13.7237V3.81738H95.5678V13.5058C95.5678 13.9751 95.6118 14.3383 95.6998 14.5953C95.7987 14.8412 95.9307 15.0143 96.0956 15.1149C96.2716 15.2155 96.4751 15.2825 96.706 15.316L97.5307 15.4166V16.6235H96.3761Z" fill="white"/>
<path d="M102.459 16.707C101.788 16.707 101.206 16.6344 100.711 16.4891C100.227 16.3438 99.8255 16.1036 99.5066 15.7683C99.1877 15.4219 98.9513 14.9526 98.7974 14.3603C98.6434 13.7681 98.5664 13.0194 98.5664 12.1142C98.5664 11.1756 98.6434 10.4101 98.7974 9.81787C98.9513 9.21444 99.1877 8.7451 99.5066 8.40987C99.8255 8.07463 100.232 7.84555 100.727 7.72263C101.222 7.58853 101.799 7.52148 102.459 7.52148C103.119 7.52148 103.696 7.58853 104.191 7.72263C104.686 7.85672 105.093 8.09139 105.411 8.42663C105.731 8.76187 105.967 9.2312 106.12 9.83463C106.274 10.4269 106.352 11.1868 106.352 12.1142C106.352 13.0306 106.274 13.7904 106.12 14.3939C105.967 14.9861 105.731 15.4499 105.411 15.7851C105.104 16.1203 104.702 16.3606 104.208 16.5059C103.713 16.64 103.13 16.707 102.459 16.707ZM102.459 15.3325C102.822 15.3325 103.141 15.299 103.416 15.232C103.702 15.1649 103.938 15.0253 104.125 14.8129C104.312 14.5895 104.455 14.2598 104.554 13.824C104.653 13.3882 104.702 12.8127 104.702 12.0975C104.702 11.3823 104.653 10.8124 104.554 10.3878C104.455 9.95196 104.312 9.6279 104.125 9.41558C103.938 9.20327 103.702 9.06358 103.416 8.99653C103.141 8.91832 102.822 8.8792 102.459 8.8792C102.085 8.8792 101.755 8.91832 101.469 8.99653C101.195 9.06358 100.964 9.20327 100.777 9.41558C100.601 9.6279 100.463 9.95196 100.364 10.3878C100.276 10.8124 100.232 11.3823 100.232 12.0975C100.232 12.8127 100.276 13.3882 100.364 13.824C100.463 14.2598 100.601 14.5895 100.777 14.8129C100.964 15.0253 101.195 15.1649 101.469 15.232C101.755 15.299 102.085 15.3325 102.459 15.3325Z" fill="white"/>
<path d="M108.367 20.579V7.63882H109.719L110.017 8.54396C110.225 8.38752 110.473 8.23108 110.758 8.07463C111.056 7.91819 111.374 7.78968 111.716 7.6891C112.067 7.57736 112.419 7.52148 112.771 7.52148C113.332 7.52148 113.81 7.63882 114.206 7.87348C114.613 8.10815 114.943 8.43781 115.196 8.86244C115.449 9.2759 115.63 9.762 115.74 10.3207C115.861 10.8795 115.921 11.4773 115.921 12.1142C115.921 13.1088 115.812 13.9525 115.592 14.6453C115.383 15.327 115.047 15.8466 114.585 16.2042C114.135 16.5506 113.529 16.7238 112.771 16.7238C112.309 16.7238 111.836 16.6567 111.352 16.5226C110.868 16.3773 110.423 16.1874 110.017 15.9527V20.579H108.367ZM112.276 15.3158C112.65 15.3158 112.986 15.2208 113.282 15.0308C113.58 14.8409 113.815 14.5168 113.991 14.0586C114.179 13.5893 114.272 12.9411 114.272 12.1142C114.272 11.332 114.179 10.7062 113.991 10.2369C113.805 9.75641 113.563 9.41558 113.266 9.21444C112.969 9.00213 112.645 8.89596 112.293 8.89596C111.831 8.89596 111.408 8.9686 111.022 9.11387C110.648 9.25914 110.313 9.41 110.017 9.56644V14.6788C110.357 14.8688 110.721 15.0253 111.105 15.1482C111.501 15.2599 111.892 15.3158 112.276 15.3158Z" fill="white"/>
<path d="M121.416 16.707C120.48 16.707 119.733 16.5674 119.172 16.288C118.623 16.0086 118.227 15.5392 117.985 14.88C117.753 14.2095 117.638 13.2876 117.638 12.1142C117.638 10.9186 117.753 9.99108 117.985 9.33177C118.227 8.66129 118.623 8.19196 119.172 7.92377C119.722 7.65558 120.465 7.52148 121.399 7.52148C122.213 7.52148 122.867 7.61089 123.362 7.78967C123.867 7.95729 124.236 8.2646 124.467 8.71158C124.709 9.14739 124.83 9.75641 124.83 10.5386C124.83 11.0862 124.72 11.522 124.5 11.8461C124.291 12.1701 123.989 12.4048 123.593 12.5501C123.208 12.6954 122.746 12.768 122.207 12.768H119.288C119.299 13.4161 119.37 13.9357 119.502 14.3268C119.645 14.7068 119.893 14.9861 120.245 15.1649C120.607 15.3325 121.135 15.4163 121.828 15.4163H124.583V16.4221C124.109 16.4891 123.625 16.5506 123.131 16.6064C122.636 16.6735 122.064 16.707 121.416 16.707ZM119.271 11.712H122.059C122.499 11.712 122.823 11.6282 123.032 11.4605C123.241 11.2929 123.346 10.9856 123.346 10.5386C123.346 10.0917 123.28 9.73965 123.148 9.48263C123.026 9.22562 122.823 9.04123 122.537 8.92948C122.251 8.81775 121.872 8.76187 121.399 8.76187C120.861 8.76187 120.431 8.84568 120.113 9.01329C119.805 9.18091 119.585 9.47704 119.453 9.90167C119.332 10.3263 119.271 10.9297 119.271 11.712Z" fill="white"/>
<path d="M126.842 16.6064V7.63882H128.113L128.492 9.14739C128.866 8.68923 129.283 8.30371 129.745 7.99082C130.207 7.67794 130.746 7.52148 131.362 7.52148C131.505 7.52148 131.642 7.53266 131.774 7.55501C131.906 7.56619 132.033 7.58853 132.154 7.62206V9.34853C132 9.32619 131.84 9.30943 131.675 9.29825C131.51 9.2759 131.34 9.26472 131.164 9.26472C130.79 9.26472 130.454 9.30942 130.158 9.39882C129.86 9.48822 129.576 9.6279 129.3 9.81787C129.036 9.99666 128.767 10.2202 128.492 10.4883V16.6064H126.842Z" fill="white"/>
<path d="M136.788 16.7077C136.558 16.7077 136.283 16.7021 135.964 16.6909C135.645 16.6797 135.315 16.6574 134.975 16.6239C134.645 16.6015 134.337 16.5736 134.051 16.54C133.775 16.5065 133.556 16.4674 133.391 16.4227V15.417H137.103C137.421 15.417 137.696 15.3947 137.927 15.35C138.158 15.2941 138.334 15.1823 138.455 15.0147C138.587 14.8471 138.653 14.6012 138.653 14.2772V13.9084C138.653 13.5732 138.543 13.3106 138.323 13.1206C138.103 12.9307 137.74 12.8357 137.235 12.8357H135.947C135.431 12.8357 134.969 12.7686 134.562 12.6345C134.166 12.4892 133.853 12.249 133.621 11.9138C133.402 11.5785 133.292 11.126 133.292 10.556V10.0699C133.292 9.50004 133.396 9.03071 133.606 8.66195C133.826 8.29319 134.171 8.01941 134.645 7.84062C135.117 7.65065 135.744 7.55566 136.525 7.55566C136.854 7.55566 137.218 7.57243 137.614 7.60595C138.02 7.62831 138.416 7.66183 138.801 7.70652C139.186 7.75122 139.494 7.80151 139.725 7.85738V8.86309H136.228C135.744 8.86309 135.37 8.9469 135.107 9.11452C134.853 9.28214 134.727 9.60062 134.727 10.0699V10.4052C134.727 10.6957 134.787 10.9192 134.909 11.0757C135.029 11.2321 135.2 11.3326 135.42 11.3774C135.651 11.4221 135.92 11.4444 136.228 11.4444H137.548C138.383 11.4444 139.016 11.6456 139.444 12.0479C139.874 12.4389 140.087 12.9921 140.087 13.7073V14.3945C140.087 14.998 139.95 15.4673 139.676 15.8025C139.4 16.1378 139.016 16.3724 138.521 16.5065C138.037 16.6406 137.46 16.7077 136.788 16.7077Z" fill="white"/>
</g>
</g>
</g>
<defs>
<clipPath id="clip0_672_3580">
<rect width="140.4" height="22" fill="white" transform="translate(0.0498047 0.5)"/>
</clipPath>
<clipPath id="clip1_672_3580">
<rect width="140.4" height="22" fill="white" transform="translate(0.0498047 0.5)"/>
</clipPath>
<clipPath id="clip2_672_3580">
<rect width="140.381" height="22" fill="white" transform="translate(0.0595703 0.5)"/>
</clipPath>
</defs>
</svg>
