<svg width="794" height="212" viewBox="0 0 794 212" fill="none" xmlns="http://www.w3.org/2000/svg">
<path d="M240.797 351.435C208.024 351.435 176.977 349.276 148.477 344.952C65.7426 332.324 14.1098 302.624 3.04726 261.329C-7.98399 220.014 22.9769 172.426 90.266 127.3C156.868 82.6443 251.289 45.5475 356.157 22.8365C461.016 0.118566 563.86 -5.51346 645.735 6.98107C728.477 19.6022 780.102 49.3092 791.164 90.5967C802.196 131.912 771.235 179.5 703.946 224.633C637.344 269.289 542.922 306.386 438.063 329.097C369.703 343.883 302.18 351.435 240.797 351.435ZM553.422 5.80685C492.508 5.80685 425.485 13.3022 357.547 28.0115C253.43 50.5678 159.774 87.3412 93.7973 131.568C28.5238 175.309 -1.66368 220.949 8.80507 260.05C30.6254 341.612 222.555 370.251 436.664 323.894C540.789 301.337 634.438 264.564 700.422 220.337C765.688 176.568 795.883 130.956 785.414 91.8553C774.946 52.7545 725.008 24.4608 644.758 12.2404C616.586 7.94435 585.86 5.80685 553.422 5.80685Z" fill="white"/>
</svg>
