<svg width="93" height="84" viewBox="0 0 93 84" fill="none" xmlns="http://www.w3.org/2000/svg">
<path d="M92.8828 40.0711H56.3984L90.2656 27.8648L88.8516 24.6586L54.4141 37.0617L80.6406 13.4578L77.9297 11.018L52.125 34.2351L66.4844 4.05703L62.9766 2.68594L48.3516 33.3703V0H44.5312V32.8359L30.9687 2.35547L27.3984 3.62812L41.1875 34.6219L14.9531 11.018L12.2422 13.4578L38.0469 36.682L4.51562 23.7586L2.99219 26.9156L37.0781 40.0711H0V43.5164H36.4844L2.61719 55.7226L4.03125 58.9289L38.4687 46.5258L12.2422 70.1367L14.9531 72.5766L40.7578 49.3523L26.3984 79.5305L29.9062 80.9016L44.5312 50.2242V83.5945H48.3516V50.7586L61.9141 81.232L65.4844 79.9664L51.6953 48.9656L77.9297 72.5766L80.6406 70.1367L54.8359 46.9125L88.3672 59.8359L89.8906 56.6719L55.8047 43.5164H92.8828V40.0711Z" fill="#ED3A85"/>
</svg>
