<svg width="635" height="596" viewBox="0 0 635 596" fill="none" xmlns="http://www.w3.org/2000/svg">
<path d="M625.543 212.288V212.288ZM625.543 212.288L626.33 215.952L627.067 219.632L627.754 223.327L628.39 227.038L628.976 230.762L629.511 234.5L629.995 238.249L630.428 242.011L630.808 245.784L631.137 249.566L631.413 253.358L631.636 257.158L631.807 260.966L631.924 264.781L631.988 268.602L631.999 272.428L631.956 276.258L631.859 280.092L631.708 283.928L631.502 287.766L631.242 291.605L630.928 295.444L630.559 299.282L630.135 303.118L629.656 306.952L629.122 310.782L628.533 314.608L627.889 318.428L627.191 322.242L626.437 326.049L625.628 329.848L624.764 333.638L623.845 337.419L622.872 341.188L621.844 344.947L620.761 348.692L619.624 352.425L618.434 356.143L617.189 359.846L615.891 363.533L614.54 367.204L613.135 370.857L611.679 374.493L610.17 378.109L608.61 381.705L606.998 385.281L605.336 388.835L603.624 392.368L601.862 395.878L600.052 399.365L598.193 402.829L596.287 406.268L594.333 409.683L592.334 413.072L590.289 416.436L588.2 419.773L586.067 423.084L583.89 426.369L581.672 429.626L579.413 432.857L577.113 436.059L574.773 439.234L572.394 442.381L569.977 445.5L567.523 448.59L565.032 451.652L562.505 454.685L559.944 457.69L557.347 460.665L554.717 463.612L552.054 466.53L549.359 469.418L546.632 472.277L543.874 475.108L541.086 477.908L538.268 480.68L535.42 483.422L532.544 486.135L529.64 488.819L526.708 491.473L523.749 494.098L520.763 496.693L517.752 499.259L514.714 501.795L511.651 504.302L508.563 506.779L505.451 509.226L502.314 511.643L499.154 514.03L495.97 516.387L492.763 518.714L489.532 521.01L486.279 523.275L483.004 525.51L479.706 527.713L476.386 529.885L473.045 532.026L469.682 534.135L466.298 536.211L462.893 538.256L459.467 540.267L456.02 542.247L452.554 544.193L449.068 546.106L445.562 547.987L442.037 549.833L438.492 551.646L434.929 553.425L431.348 555.17L427.748 556.881L424.13 558.557L420.495 560.198L416.842 561.803L413.172 563.374L409.485 564.908L405.782 566.407L402.062 567.869L398.326 569.295L394.574 570.683L390.807 572.033L387.025 573.346L383.228 574.62L379.416 575.856L375.589 577.052L371.749 578.208L367.896 579.324L364.029 580.399L360.149 581.433L356.256 582.425L352.351 583.375L348.435 584.281L344.507 585.144L340.569 585.962L336.62 586.736L332.661 587.464L328.692 588.147L324.715 588.783L320.729 589.371L316.736 589.912L312.735 590.404L308.728 590.848L304.715 591.242L300.696 591.586L296.673 591.879L292.646 592.121L288.616 592.312L284.583 592.451L280.549 592.538L276.513 592.571L272.478 592.552L268.443 592.479L264.41 592.352L260.379 592.172L256.351 591.937L252.327 591.649L248.307 591.306L244.294 590.909L240.287 590.457L236.287 589.951L232.295 589.391L228.313 588.776L224.34 588.107L220.378 587.384L216.428 586.606L212.49 585.775L208.566 584.89L204.656 583.95L200.761 582.958L196.881 581.911L193.019 580.812L189.174 579.66L185.348 578.455L181.541 577.197L177.754 575.887L173.988 574.526L170.243 573.113L166.522 571.648L162.823 570.133L159.149 568.568L155.5 566.953L151.876 565.288L148.279 563.574L144.71 561.811L141.168 560.001L137.655 558.142L134.171 556.237L130.718 554.285L127.295 552.287L123.904 550.244L120.545 548.156L117.219 546.023L113.926 543.847L110.667 541.627L107.444 539.365L104.255 537.062L101.103 534.717L97.9872 532.331L94.9088 529.905L91.8683 527.44L88.8664 524.935L85.9037 522.392L82.981 519.81L80.0989 517.191L77.2581 514.535L74.4593 511.842L71.7033 509.113L68.9907 506.348L66.3224 503.548L63.6991 500.713L61.1214 497.843L58.5903 494.94L56.1064 492.003L53.6706 489.033L51.2835 486.031L48.9461 482.996L46.6591 479.931L44.4232 476.835L42.2393 473.708L40.108 470.552L38.0303 467.367L36.0068 464.153L34.0383 460.912L32.1256 457.644L30.2693 454.35L28.4701 451.03L26.7287 447.685L25.0459 444.317L23.4221 440.926L21.8581 437.512L20.3544 434.078L18.9114 430.623L17.5298 427.149L16.2099 423.657L14.9523 420.147L13.7572 416.622L12.6249 413.081L11.5558 409.527L10.55 405.96L9.60776 402.382L8.7291 398.794L7.91408 395.196L7.16266 391.591L6.47476 387.98L5.8502 384.363L5.28875 380.743L4.79011 377.12L4.35387 373.497L3.97959 369.873L3.66673 366.252L3.41465 362.633L3.22267 359.02L3.09 355.412L3.01576 351.811L2.99902 348.219L3.03874 344.637L3.13382 341.066L3.28312 337.508L3.48545 333.964L3.73956 330.436L4.04419 326.923L4.39801 323.428L4.79966 319.951L5.24776 316.495L5.74089 313.058L6.2776 309.644L6.85642 306.252L7.47584 302.883L8.13435 299.539L8.83042 296.22L9.5625 292.926L10.329 289.658L11.1285 286.418L11.9592 283.205L12.8198 280.02L13.7085 276.863L14.6238 273.735L15.5643 270.636L16.5283 267.566L17.5143 264.526L18.5209 261.516L19.5465 258.535L20.5897 255.584L21.649 252.663L22.7231 249.772L23.8106 246.91L24.9102 244.078L26.0205 241.276L27.1403 238.502L28.2684 235.757L29.4035 233.041L30.5447 230.353L31.6908 227.693L32.8408 225.06L33.9936 222.454L35.1485 219.874L36.3047 217.32L37.4613 214.792L38.6179 212.288L39.774 209.809L40.929 207.353L42.0826 204.92L43.2346 202.51L44.3848 200.121L45.5332 197.754L46.6796 195.408L47.8241 193.082L48.9669 190.776L50.1082 188.488L51.2481 186.22L52.3871 183.97L53.5255 181.737L54.6636 179.522L55.8021 177.324L56.9413 175.142L58.0819 172.977L59.2244 170.827L60.3695 168.694L61.5178 166.576L62.67 164.473L63.8267 162.386L64.9888 160.314L66.1569 158.257L67.3317 156.215L68.514 154.188L69.7045 152.176L70.9039 150.18L72.113 148.199L73.3323 146.233L74.5627 144.284L75.8047 142.35L77.0591 140.432L78.3263 138.531L79.6071 136.647L80.9019 134.779L82.2112 132.93L83.5355 131.097L84.8753 129.283L86.2309 127.488L87.6027 125.711L88.9909 123.954L90.3958 122.216L91.8176 120.498L93.2564 118.801L94.7124 117.124L96.1855 115.469L97.6756 113.835L99.1829 112.223L100.707 110.633L102.248 109.065L103.805 107.52L105.379 105.998L106.968 104.499L108.573 103.023L110.193 101.571L111.827 100.142L113.475 98.7358L115.137 97.3535L116.811 95.9944L118.498 94.6588L120.196 93.3463L121.906 92.057L123.626 90.7906L125.356 89.547L127.095 88.326L128.842 87.1273L130.598 85.9507L132.361 84.7957L134.13 83.6622L135.906 82.5497L137.687 81.4578L139.472 80.3861L141.262 79.3341L143.055 78.3015L144.852 77.2875L146.65 76.2919L148.451 75.3139L150.253 74.353L152.055 73.4088L153.858 72.4804L155.661 71.5674L157.463 70.6691L159.264 69.7849L161.064 68.914L162.863 68.056L164.659 67.21L166.453 66.3755L168.244 65.5518L170.032 64.7382L171.818 63.934L173.6 63.1386L175.379 62.3513L177.154 61.5715L178.926 60.7986L180.694 60.0319L182.459 59.2707L184.22 58.5146L185.978 57.7629L187.733 57.0151L189.484 56.2705L191.232 55.5288L192.977 54.7893L194.719 54.0517L196.459 53.3154L198.197 52.5801L199.932 51.8453L201.666 51.1106L203.399 50.3758L205.131 49.6404L206.862 48.9043L208.592 48.1671L210.323 47.4287L212.055 46.6887L213.787 45.9472L215.521 45.2038L217.256 44.4585L218.994 43.7113L220.735 42.962L222.478 42.2106L224.226 41.4572L225.978 40.7018L227.734 39.9444L229.496 39.185L231.263 38.424L233.036 37.6612L234.816 36.897L236.602 36.1314L238.397 35.3647L240.199 34.5971L242.01 33.8288L243.829 33.0602L245.658 32.2914L247.497 31.5227L249.346 30.7546L251.205 29.9873L253.076 29.2211L254.958 28.4564L256.851 27.6936L258.757 26.933L260.676 26.1751L262.607 25.4203L264.551 24.6689L266.509 23.9215L268.481 23.1784L270.467 22.4401L272.468 21.7071L274.483 20.9799L276.513 20.2588L278.559 19.5445L280.62 18.8373L282.696 18.1379L284.789 17.4467L286.897 16.7643L289.022 16.0911L291.163 15.4279L293.321 14.775L295.496 14.1331L297.687 13.5027L299.895 12.8844L302.12 12.2787L304.362 11.6862L306.621 11.1073L308.897 10.5428L311.191 9.99313L313.501 9.45883L315.829 8.94048L318.174 8.43863L320.535 7.95384L322.914 7.48668L325.31 7.03769L327.722 6.60745L330.152 6.19651L332.598 5.80543L335.06 5.43479L337.539 5.08515L340.034 4.75707L342.545 4.45112L345.072 4.16789L347.614 3.90793L350.172 3.67182L352.744 3.46015L355.332 3.27347L357.934 3.11239L360.55 2.97746L363.181 2.86927L365.825 2.7884L368.482 2.73543L371.152 2.71094L373.834 2.71549L376.528 2.74968L379.234 2.81407L381.951 2.90922L384.678 3.03572L387.416 3.1941L390.163 3.38487L392.919 3.60852L395.684 3.86547L398.457 4.15614L401.237 4.48089L404.024 4.84008L406.818 5.23401L409.619 5.66297L412.424 6.12723L415.235 6.62703L418.051 7.16258L420.87 7.7341L423.694 8.34175L426.52 8.98571L429.35 9.66613L432.181 10.3831L435.015 11.1369L437.85 11.9274L440.685 12.7549L443.522 13.6194L446.358 14.521L449.194 15.4598L452.028 16.4358L454.862 17.4491L457.694 18.4999L460.523 19.588L463.35 20.7137L466.174 21.8768L468.993 23.0775L471.809 24.3159L474.621 25.5918L477.427 26.9055L480.228 28.2569L483.022 29.646L485.811 31.0729L488.592 32.5376L491.366 34.0402L494.131 35.5806L496.889 37.1589L499.637 38.7751L502.376 40.4292L505.104 42.1213L507.822 43.8513L510.529 45.6193L513.223 47.4253L515.906 49.2692L518.575 51.1511L521.231 53.071L523.873 55.0288L526.499 57.0247L529.11 59.0584L531.706 61.1301L534.284 63.2396L536.844 65.387L539.387 67.5722L541.91 69.7951L544.414 72.0557L546.897 74.354L549.359 76.6898L551.799 79.063L554.216 81.4736L556.609 83.9214L558.978 86.4063L561.322 88.9282L563.64 91.4867L565.931 94.0818L568.194 96.7132L570.429 99.3807L572.635 102.084L574.811 104.823L576.957 107.597L579.071 110.406L581.153 113.249L583.202 116.127L585.218 119.038L587.2 121.983L589.147 124.961L591.058 127.971L592.933 131.014L594.771 134.088L596.572 137.193L598.334 140.329L600.058 143.496L601.743 146.692L603.387 149.917L604.991 153.171L606.554 156.453L608.075 159.763L609.554 163.099L610.99 166.462L612.383 169.851L613.733 173.264L615.037 176.703L616.297 180.165L617.512 183.65L618.681 187.158L619.804 190.688L620.88 194.239L621.908 197.81L622.89 201.402L623.823 205.012L624.707 208.641L625.543 212.288" stroke="#FFEA00" stroke-width="5"/>
</svg>
